<svg width="64" height="64" viewBox="0 0 64 64" fill="none" xmlns="http://www.w3.org/2000/svg">
<rect width="64" height="64" rx="16" fill="white"/>
<path d="M28 29.5C32.4183 29.5 36 25.9183 36 21.5C36 17.0817 32.4183 13.5 28 13.5C23.5817 13.5 20 17.0817 20 21.5C20 25.9183 23.5817 29.5 28 29.5Z" fill="#1E3362"/>
<path d="M27.7001 52.5979C37.5861 52.5979 45.6002 48.0184 45.6002 42.3693C45.6002 36.7201 37.5861 32.1406 27.7001 32.1406C17.8142 32.1406 9.80005 36.7201 9.80005 42.3693C9.80005 48.0184 17.8142 52.5979 27.7001 52.5979Z" fill="#DEE5F5"/>
<path fill-rule="evenodd" clip-rule="evenodd" d="M44.714 12.7285C45.1404 12.0181 46.0618 11.7878 46.772 12.214L46.0004 13.5002C46.772 12.214 46.7714 12.2136 46.772 12.214L46.7748 12.2157L46.778 12.2176L46.7854 12.2221L46.8046 12.2339C46.8192 12.2431 46.8378 12.2547 46.8598 12.269C46.9038 12.2974 46.962 12.3362 47.0324 12.3854C47.173 12.4839 47.363 12.6249 47.5856 12.8104C48.0298 13.1806 48.6108 13.7336 49.1892 14.4857C50.355 16.0011 51.5004 18.3149 51.5004 21.5002C51.5004 24.6855 50.355 26.9993 49.1892 28.5148C48.6108 29.2668 48.0298 29.8198 47.5856 30.19C47.363 30.3756 47.173 30.5166 47.0324 30.615C46.962 30.6642 46.9038 30.703 46.8598 30.7314C46.8378 30.7458 46.8192 30.7574 46.8046 30.7666L46.7854 30.7784L46.778 30.7828L46.7748 30.7848C46.7742 30.7852 46.772 30.7864 46.0004 29.5002L46.772 30.7864C46.0618 31.2126 45.1404 30.9824 44.714 30.272C44.2896 29.5646 44.5162 28.648 45.2196 28.2194L45.2308 28.2124C45.2454 28.2028 45.273 28.1846 45.312 28.1574C45.3902 28.1026 45.5126 28.0124 45.665 27.8854C45.9708 27.6306 46.39 27.2336 46.8114 26.6857C47.6456 25.6011 48.5004 23.9149 48.5004 21.5002C48.5004 19.0855 47.6456 17.3993 46.8114 16.3148C46.39 15.7669 45.9708 15.3699 45.665 15.1151C45.5126 14.9881 45.3902 14.8978 45.312 14.8431C45.273 14.8158 45.2454 14.7976 45.2308 14.7881L45.2196 14.7811C44.5162 14.3525 44.2896 13.4359 44.714 12.7285Z" fill="#1E3362"/>
<path fill-rule="evenodd" clip-rule="evenodd" d="M40.6586 16.8295C41.0292 16.0885 41.9302 15.7882 42.6712 16.1587L42.0004 17.5003C42.6712 16.1587 42.6704 16.1583 42.6712 16.1587L42.6744 16.1603L42.6778 16.162L42.6852 16.1658L42.7024 16.1747L42.7456 16.198C42.7782 16.2159 42.8182 16.2388 42.8648 16.267C42.9574 16.3233 43.0766 16.4013 43.2128 16.5035C43.4846 16.7074 43.8306 17.0119 44.1716 17.4383C44.869 18.3101 45.5004 19.6359 45.5004 21.5003C45.5004 23.3647 44.869 24.6906 44.1716 25.5624C43.8306 25.9888 43.4846 26.2933 43.2128 26.4972C43.0766 26.5994 42.9574 26.6774 42.8648 26.7337C42.8182 26.7619 42.7782 26.7848 42.7456 26.8027L42.7024 26.8259L42.6852 26.8348L42.6778 26.8386L42.6744 26.8403C42.6736 26.8407 42.6712 26.842 42.0128 25.5254L42.6712 26.842C41.9302 27.2125 41.0292 26.9121 40.6586 26.1711C40.2928 25.4394 40.5812 24.5516 41.302 24.1728C41.3036 24.1719 41.3054 24.1708 41.3078 24.1693C41.3244 24.1592 41.3616 24.1356 41.4128 24.0972C41.516 24.0199 41.6702 23.8869 41.829 23.6883C42.1316 23.3101 42.5004 22.6359 42.5004 21.5003C42.5004 20.3647 42.1316 19.6906 41.829 19.3124C41.6702 19.1138 41.516 18.9808 41.4128 18.9035C41.3616 18.865 41.3244 18.8414 41.3078 18.8313C41.3054 18.8299 41.3036 18.8287 41.302 18.8279C40.5812 18.4491 40.2928 17.5612 40.6586 16.8295Z" fill="#1E3362"/>
</svg>
