<svg width="64" height="64" viewBox="0 0 64 64" fill="none" xmlns="http://www.w3.org/2000/svg">
<rect width="64" height="64" rx="16" fill="white"/>
<path d="M15.1103 36.5144C13.6734 29.8086 12.9549 26.4559 14.756 24.2279C16.5571 22 19.986 22 26.8439 22H37.1562C44.0142 22 47.443 22 49.2442 24.2279C51.0452 26.4559 50.3268 29.8086 48.8898 36.5144L48.0328 40.5144C47.0588 45.0594 46.5718 47.332 44.9216 48.666C43.2714 50 40.9474 50 36.299 50H27.7011C23.0528 50 20.7286 50 19.0785 48.666C17.4284 47.332 16.9414 45.0594 15.9674 40.5144L15.1103 36.5144Z" fill="#DEE5F5"/>
<path d="M24 30.5C23.1716 30.5 22.5 31.1716 22.5 32C22.5 32.8284 23.1716 33.5 24 33.5H40C40.8284 33.5 41.5 32.8284 41.5 32C41.5 31.1716 40.8284 30.5 40 30.5H24Z" fill="#1E3362"/>
<path d="M26.5 38C26.5 37.1716 27.1716 36.5 28 36.5H36C36.8284 36.5 37.5 37.1716 37.5 38C37.5 38.8284 36.8284 39.5 36 39.5H28C27.1716 39.5 26.5 38.8284 26.5 38Z" fill="#1E3362"/>
<path fill-rule="evenodd" clip-rule="evenodd" d="M37.3296 12.6587C38.0704 12.2882 38.9714 12.5885 39.342 13.3295L45.342 25.3295C45.7124 26.0705 45.4122 26.9715 44.6712 27.342C43.9302 27.7124 43.0292 27.4121 42.6586 26.6711L36.6586 14.6711C36.2882 13.9302 36.5886 13.0292 37.3296 12.6587Z" fill="#1E3362"/>
<path fill-rule="evenodd" clip-rule="evenodd" d="M26.6704 12.6587C25.9294 12.2882 25.0284 12.5885 24.658 13.3295L18.658 25.3295C18.2875 26.0705 18.5878 26.9715 19.3288 27.342C20.0697 27.7124 20.9707 27.4121 21.3412 26.6711L27.3412 14.6711C27.7117 13.9302 27.4114 13.0292 26.6704 12.6587Z" fill="#1E3362"/>
</svg>
