<svg width="64" height="64" viewBox="0 0 64 64" fill="none" xmlns="http://www.w3.org/2000/svg">
<rect width="64" height="64" rx="16" fill="white"/>
<path d="M27.1847 14.4006C26.6977 14.8156 26.4542 15.0232 26.1941 15.1975C25.5979 15.5971 24.9283 15.8744 24.2242 16.0134C23.917 16.0741 23.5981 16.0995 22.9602 16.1504C21.3574 16.2783 20.556 16.3423 19.8874 16.5785C18.341 17.1247 17.1247 18.341 16.5785 19.8874C16.3423 20.556 16.2784 21.3574 16.1505 22.9601C16.0996 23.598 16.0741 23.917 16.0134 24.2242C15.8744 24.9283 15.5971 25.5979 15.1975 26.1941C15.0232 26.4542 14.8156 26.6977 14.4006 27.1848C13.3577 28.4086 12.8362 29.0204 12.5304 29.6602C11.8232 31.14 11.8232 32.86 12.5304 34.3398C12.8362 34.9796 13.3577 35.5914 14.4005 36.8152C14.8155 37.3022 15.0232 37.5458 15.1975 37.8058C15.5971 38.402 15.8744 39.0716 16.0134 39.7758C16.0741 40.083 16.0995 40.402 16.1504 41.0398C16.2783 42.6426 16.3423 43.444 16.5785 44.1126C17.1247 45.659 18.341 46.8754 19.8874 47.4216C20.556 47.6576 21.3573 47.7216 22.96 47.8496C23.5979 47.9004 23.917 47.926 24.2242 47.9866C24.9283 48.1256 25.5979 48.403 26.1941 48.8026C26.4542 48.9768 26.6977 49.1844 27.1848 49.5994C28.4086 50.6424 29.0204 51.1638 29.6602 51.4696C31.14 52.1768 32.86 52.1768 34.3398 51.4696C34.9796 51.1638 35.5914 50.6424 36.8152 49.5994C37.3022 49.1844 37.5458 48.9768 37.8058 48.8026C38.402 48.403 39.0716 48.1256 39.7758 47.9866C40.083 47.926 40.402 47.9004 41.0398 47.8496C42.6424 47.7216 43.444 47.6576 44.1126 47.4216C45.659 46.8754 46.8754 45.659 47.4216 44.1126C47.6576 43.444 47.7216 42.6426 47.8496 41.04C47.9004 40.4022 47.926 40.083 47.9866 39.7758C48.1256 39.0716 48.403 38.402 48.8026 37.8058C48.9768 37.5458 49.1844 37.3022 49.5994 36.8152C50.6424 35.5914 51.1638 34.9796 51.4696 34.3398C52.1768 32.86 52.1768 31.14 51.4696 29.6602C51.1638 29.0204 50.6424 28.4086 49.5994 27.1848C49.1844 26.6977 48.9768 26.4542 48.8026 26.1941C48.403 25.5979 48.1256 24.9283 47.9866 24.2242C47.926 23.917 47.9004 23.5981 47.8496 22.9602C47.7216 21.3575 47.6576 20.556 47.4216 19.8874C46.8754 18.341 45.659 17.1247 44.1126 16.5785C43.444 16.3423 42.6426 16.2784 41.0398 16.1505C40.402 16.0996 40.083 16.0741 39.7758 16.0134C39.0716 15.8744 38.402 15.5971 37.8058 15.1975C37.5458 15.0232 37.3022 14.8156 36.8152 14.4005C35.5914 13.3577 34.9796 12.8362 34.3398 12.5304C32.86 11.8232 31.14 11.8232 29.6602 12.5304C29.0204 12.8362 28.4085 13.3577 27.1847 14.4006Z" fill="#DEE5F5"/>
<path d="M40.7472 27.724C41.3828 27.0884 41.3828 26.0577 40.7472 25.4221C40.1114 24.7864 39.0808 24.7864 38.4452 25.4221L28.7446 35.1227L25.5551 31.9329C24.9194 31.2973 23.8888 31.2973 23.2531 31.9329C22.6175 32.5687 22.6175 33.5993 23.2531 34.2349L27.5937 38.5755C28.2294 39.2111 29.26 39.2111 29.8956 38.5755L40.7472 27.724Z" fill="#1E3362"/>
</svg>
