<svg width="64" height="64" viewBox="0 0 64 64" fill="none" xmlns="http://www.w3.org/2000/svg">
<rect width="64" height="64" rx="16" fill="white"/>
<path d="M22.6962 13.5195C23.4687 13.5195 24.0948 14.093 24.0948 14.8003V17.3839C25.3354 17.3619 26.726 17.3619 28.2906 17.3619H35.7499C37.3144 17.3619 38.7051 17.3619 39.9457 17.3839V14.8003C39.9457 14.093 40.5718 13.5195 41.3441 13.5195C42.1167 13.5195 42.7428 14.093 42.7428 14.8003V17.4972C45.427 17.694 47.1889 18.1771 48.4836 19.3626C49.778 20.5481 50.3055 22.1617 50.5204 24.6197V26.4697H13.52V24.6197C13.735 22.1617 14.2624 20.5481 15.557 19.3626C16.8515 18.1771 18.6136 17.694 21.2976 17.4972V14.8003C21.2976 14.093 21.9238 13.5195 22.6962 13.5195Z" fill="#1E3362"/>
<path d="M50.5203 35.7189V32.0188C50.5203 30.4666 50.4968 27.6995 50.4729 26.4688H13.5307C13.5069 27.6995 13.5303 30.4666 13.5303 32.0188V35.7189C13.5303 42.6956 13.5303 46.1842 15.6971 48.3515C17.864 50.519 21.3514 50.519 28.3263 50.519H35.7244C42.6992 50.519 46.1866 50.519 48.3536 48.3515C50.5203 46.1842 50.5203 42.6956 50.5203 35.7189Z" fill="#DEE5F5"/>
<path d="M43.1204 40.3453C43.1204 41.8779 41.8779 43.1204 40.3453 43.1204C38.8128 43.1204 37.5703 41.8779 37.5703 40.3453C37.5703 38.8128 38.8128 37.5703 40.3453 37.5703C41.8779 37.5703 43.1204 38.8128 43.1204 40.3453Z" fill="#1E3362"/>
</svg>
