<svg width="64" height="64" viewBox="0 0 64 64" fill="none" xmlns="http://www.w3.org/2000/svg">
<rect width="64" height="64" rx="16" fill="white"/>
<path d="M12.555 18.4939C12.7765 17.6956 13.6031 17.228 14.4014 17.4495L17.8088 18.3949C19.6426 18.9037 21.0938 20.3173 21.6001 22.1498L25.9021 37.7218L26.2187 38.815C27.485 39.2876 28.5726 40.1732 29.2628 41.3494L29.8828 41.158L47.623 36.5478C48.4248 36.3394 49.2438 36.8204 49.4522 37.6222C49.6606 38.424 49.1794 39.2428 48.3776 39.4512L30.703 44.0446L30.0456 44.2476C30.0322 46.7894 28.2784 49.111 25.6247 49.8006C22.4438 50.6272 19.1742 48.7964 18.3218 45.7112C17.4695 42.626 19.3572 39.4548 22.5382 38.6282C22.6958 38.5872 22.8536 38.5528 23.0114 38.5246L18.7084 22.9487C18.4918 22.1648 17.8579 21.5218 17.0068 21.2857L13.5994 20.3403C12.8011 20.1188 12.3335 19.2922 12.555 18.4939Z" fill="#1E3362"/>
<path d="M27.1289 25.461L28.1578 29.1852C29.1278 32.6962 29.6128 34.4518 31.0388 35.2504C32.4646 36.0488 34.2748 35.5784 37.8948 34.6376L41.7346 33.6398C45.3548 32.699 47.1648 32.2286 47.9882 30.8454C48.8114 29.4624 48.3264 27.7069 47.3564 24.1958L46.3276 20.4716C45.3576 16.9605 44.8726 15.2049 43.4466 14.4064C42.0206 13.6079 40.2104 14.0783 36.5904 15.0191L32.7506 16.017C29.1304 16.9578 27.3204 17.4282 26.4971 18.8112C25.6738 20.1943 26.1588 21.9499 27.1289 25.461Z" fill="#DEE5F5"/>
</svg>
