<svg width="247" height="48" viewBox="0 0 247 48" fill="none" xmlns="http://www.w3.org/2000/svg">
<path d="M113.855 43.5721V32.223H116.605V43.5721H113.855ZM113.855 29.1945V26.6116H116.605V29.1945H113.855Z" fill="white"/>
<path d="M124.161 43.5721V32.223H133.627C134.159 32.223 134.642 32.3469 135.076 32.5948C135.523 32.8427 135.873 33.1688 136.125 33.5732C136.391 33.9776 136.524 34.4276 136.524 34.9233V43.5721H133.774V35.0212C133.774 34.9559 133.746 34.9038 133.69 34.8646C133.648 34.8124 133.592 34.7863 133.522 34.7863H127.163C127.093 34.7863 127.03 34.8124 126.974 34.8646C126.932 34.9038 126.911 34.9559 126.911 35.0212V43.5721H124.161Z" fill="white"/>
<path d="M146.479 43.5721C145.933 43.5721 145.444 43.4482 145.01 43.2003C144.576 42.9525 144.226 42.6263 143.96 42.2219C143.709 41.8176 143.583 41.3675 143.583 40.8718V34.9233C143.583 34.4276 143.709 33.9776 143.96 33.5732C144.226 33.1688 144.576 32.8427 145.01 32.5948C145.444 32.3469 145.933 32.223 146.479 32.223H153.217L153.228 26.6304H155.967V43.5721H146.479ZM146.605 41.0088H152.965C153.035 41.0088 153.091 40.9892 153.133 40.9501C153.189 40.8979 153.217 40.8392 153.217 40.774V35.0212C153.217 34.9559 153.189 34.9038 153.133 34.8646C153.091 34.8124 153.035 34.7863 152.965 34.7863H146.605C146.535 34.7863 146.472 34.8124 146.416 34.8646C146.374 34.9038 146.353 34.9559 146.353 35.0212V40.774C146.353 40.8392 146.374 40.8979 146.416 40.9501C146.472 40.9892 146.535 41.0088 146.605 41.0088Z" fill="white"/>
<path d="M166.054 43.5721C165.522 43.5721 165.032 43.4482 164.585 43.2003C164.151 42.9525 163.801 42.6263 163.535 42.2219C163.283 41.8176 163.157 41.3675 163.157 40.8718V32.223H165.907V40.774C165.907 40.8392 165.928 40.8979 165.97 40.9501C166.026 40.9892 166.089 41.0088 166.159 41.0088H172.519C172.589 41.0088 172.645 40.9892 172.687 40.9501C172.743 40.8979 172.771 40.8392 172.771 40.774V32.223H175.52V40.8718C175.52 41.3675 175.387 41.8176 175.121 42.2219C174.87 42.6263 174.527 42.9525 174.093 43.2003C173.659 43.4482 173.169 43.5721 172.624 43.5721H166.054Z" fill="white"/>
<path d="M185.57 43.5721C185.039 43.5721 184.556 43.4482 184.122 43.2003C183.688 42.9525 183.338 42.6263 183.073 42.2219C182.807 41.8176 182.674 41.3675 182.674 40.8718V40.4413H185.423V40.774C185.423 40.8392 185.444 40.8979 185.486 40.9501C185.542 40.9892 185.605 41.0088 185.675 41.0088H192.035C192.105 41.0088 192.161 40.9892 192.203 40.9501C192.259 40.8979 192.287 40.8392 192.287 40.774V39.4238C192.287 39.3586 192.259 39.3064 192.203 39.2673C192.161 39.2151 192.105 39.189 192.035 39.189H185.57C185.039 39.189 184.556 39.0651 184.122 38.8172C183.688 38.5694 183.338 38.2432 183.073 37.8389C182.807 37.4345 182.674 36.9844 182.674 36.4887V34.9233C182.674 34.4276 182.807 33.9776 183.073 33.5732C183.338 33.1688 183.688 32.8427 184.122 32.5948C184.556 32.3469 185.039 32.223 185.57 32.223H192.14C192.686 32.223 193.176 32.3469 193.609 32.5948C194.043 32.8427 194.393 33.1688 194.659 33.5732C194.925 33.9776 195.058 34.4276 195.058 34.9233V35.3538H192.287V35.0212C192.287 34.9559 192.259 34.9038 192.203 34.8646C192.161 34.8124 192.105 34.7863 192.035 34.7863H185.675C185.605 34.7863 185.542 34.8124 185.486 34.8646C185.444 34.9038 185.423 34.9559 185.423 35.0212V36.3713C185.423 36.4365 185.444 36.4952 185.486 36.5474C185.542 36.5865 185.605 36.6061 185.675 36.6061H192.14C192.686 36.6061 193.176 36.73 193.609 36.9779C194.043 37.2257 194.393 37.5519 194.659 37.9563C194.925 38.3607 195.058 38.8107 195.058 39.3064V40.8718C195.058 41.3675 194.925 41.8176 194.659 42.2219C194.393 42.6263 194.043 42.9525 193.609 43.2003C193.176 43.4482 192.686 43.5721 192.14 43.5721H185.57Z" fill="white"/>
<path d="M205.522 43.5721C204.99 43.5721 204.508 43.4482 204.074 43.2003C203.64 42.9525 203.29 42.6263 203.024 42.2219C202.758 41.8176 202.626 41.3675 202.626 40.8718V28.4244H205.375V32.223H210.119V34.7863H205.375V40.774C205.375 40.8392 205.396 40.8979 205.438 40.9501C205.494 40.9892 205.557 41.0088 205.627 41.0088H210.119V43.5721H205.522Z" fill="white"/>
<path d="M217.747 43.5721V34.9233C217.747 34.4276 217.88 33.9776 218.146 33.5732C218.412 33.1688 218.762 32.8427 219.196 32.5948C219.644 32.3469 220.126 32.223 220.644 32.223H227.403V34.7863H220.749C220.679 34.7863 220.616 34.8124 220.56 34.8646C220.518 34.9038 220.497 34.9559 220.497 35.0212V43.5721H217.747Z" fill="white"/>
<path d="M235.997 47.7791V45.1962H243.323C243.393 45.1962 243.449 45.1701 243.491 45.1179C243.547 45.0788 243.575 45.0266 243.575 44.9614V43.5721H236.858C236.34 43.5721 235.857 43.4482 235.41 43.2003C234.976 42.9525 234.626 42.6263 234.36 42.2219C234.094 41.8176 233.961 41.3675 233.961 40.8718V32.2622H236.711V40.774C236.711 40.8392 236.732 40.8979 236.774 40.9501C236.83 40.9892 236.893 41.0088 236.963 41.0088H243.323C243.393 41.0088 243.449 40.9892 243.491 40.9501C243.547 40.8979 243.575 40.8392 243.575 40.774V32.2622H246.324V45.0788C246.324 45.5745 246.198 46.0245 245.946 46.4289C245.695 46.8464 245.345 47.1725 244.897 47.4073C244.463 47.6551 243.98 47.7791 243.449 47.7791H235.997Z" fill="white"/>
<path fill-rule="evenodd" clip-rule="evenodd" d="M113.618 26.3906H116.842V29.4154H113.618V26.3906ZM114.092 26.8325V28.9735H116.368V26.8325H114.092ZM152.98 26.3906H156.204V43.793H146.479C145.893 43.793 145.36 43.6593 144.886 43.3886C144.42 43.1225 144.044 42.7714 143.758 42.3373L143.757 42.3351L143.755 42.3328C143.481 41.8927 143.346 41.404 143.346 40.8717V34.9233C143.346 34.391 143.481 33.9023 143.755 33.4622L143.757 33.4599L143.758 33.4577C144.044 33.0236 144.42 32.6724 144.886 32.4064C145.36 32.1357 145.893 32.002 146.479 32.002H152.98V26.3906ZM153.454 26.8325V32.4439H146.479C145.974 32.4439 145.527 32.5581 145.134 32.7831C144.733 33.0123 144.41 33.3127 144.164 33.6863C143.935 34.0544 143.82 34.465 143.82 34.9233V40.8717C143.82 41.33 143.935 41.7406 144.164 42.1087C144.41 42.4823 144.733 42.7827 145.134 43.0119C145.527 43.2369 145.974 43.3511 146.479 43.3511H155.73V26.8325H153.454ZM202.388 28.2034H205.612V32.002H210.356V35.0072H205.612V40.7739C205.612 40.7785 205.612 40.7828 205.613 40.7869C205.617 40.7875 205.622 40.7878 205.627 40.7878H210.356V43.793H205.522C204.949 43.793 204.423 43.6587 203.95 43.3886C203.484 43.1225 203.108 42.7714 202.822 42.3373C202.532 41.8966 202.388 41.4063 202.388 40.8717V28.2034ZM202.862 28.6453V40.8717C202.862 41.3286 202.984 41.7384 203.226 42.1064C203.473 42.4811 203.796 42.7823 204.198 43.0119C204.592 43.2375 205.032 43.3511 205.522 43.3511H209.882V41.2296H205.627C205.506 41.2296 205.393 41.1946 205.296 41.1267L205.269 41.1078L205.248 41.0826C205.176 40.9921 205.138 40.8869 205.138 40.7739V34.5654H209.882V32.4439H205.138V28.6453H202.862ZM113.618 32.002H116.842V43.793H113.618V32.002ZM114.092 32.4439V43.3511H116.368V32.4439H114.092ZM123.924 32.002H133.627C134.2 32.002 134.726 32.136 135.198 32.4056C135.678 32.6713 136.056 33.0231 136.329 33.4599C136.617 33.9001 136.761 34.3896 136.761 34.9233V43.793H133.537V35.0337L133.521 35.0224L133.509 35.0072H127.162C127.161 35.0072 127.16 35.0074 127.16 35.0074L127.16 35.0075L127.159 35.0077C127.158 35.0081 127.154 35.0099 127.148 35.015C127.148 35.0166 127.148 35.0186 127.148 35.0211V43.793H123.924V32.002ZM124.398 32.4439V43.3511H126.674V35.0211C126.674 34.9085 126.712 34.7962 126.806 34.7083C126.9 34.6207 127.021 34.5654 127.162 34.5654H133.522C133.656 34.5654 133.773 34.6153 133.859 34.7075C133.958 34.7873 134.011 34.8969 134.011 35.0211V43.3511H136.287V34.9233C136.287 34.4664 136.165 34.0566 135.923 33.6886L135.922 33.6863L135.92 33.684C135.689 33.3135 135.369 33.0141 134.955 32.7847L134.952 32.7831C134.557 32.5575 134.117 32.4439 133.627 32.4439H124.398ZM162.92 32.002H166.144V40.7739C166.144 40.7786 166.144 40.7828 166.145 40.7869C166.149 40.7875 166.154 40.7878 166.159 40.7878H172.519C172.521 40.7878 172.523 40.7877 172.525 40.7876C172.531 40.7816 172.533 40.778 172.533 40.7771C172.533 40.7764 172.533 40.7761 172.533 40.7761C172.533 40.7761 172.534 40.7754 172.534 40.7739V32.002H175.757V40.8717C175.757 41.4054 175.614 41.8949 175.325 42.3351C175.053 42.7706 174.683 43.1224 174.217 43.3886C173.743 43.6593 173.21 43.793 172.624 43.793H166.054C165.48 43.793 164.949 43.6588 164.464 43.3902L164.461 43.3886C163.995 43.1225 163.618 42.7714 163.333 42.3373L163.331 42.3351L163.33 42.3328C163.056 41.8927 162.92 41.404 162.92 40.8717V32.002ZM163.394 32.4439V40.8717C163.394 41.33 163.51 41.7406 163.739 42.1087C163.984 42.4819 164.306 42.782 164.707 43.0111C165.117 43.2377 165.564 43.3511 166.054 43.3511H172.624C173.129 43.3511 173.575 43.2369 173.969 43.0119C174.37 42.7829 174.685 42.4832 174.916 42.1109L174.918 42.1087L174.919 42.1064C175.161 41.7384 175.283 41.3286 175.283 40.8717V32.4439H173.008V40.7739C173.008 40.9056 172.948 41.0185 172.854 41.1062C172.76 41.1941 172.639 41.2296 172.519 41.2296H166.159C166.037 41.2296 165.925 41.1946 165.828 41.1267L165.801 41.1078L165.78 41.0826C165.707 40.9921 165.67 40.8869 165.67 40.7739V32.4439H163.394ZM185.57 32.4439C185.08 32.4439 184.641 32.5575 184.246 32.7831C183.844 33.0127 183.521 33.3139 183.274 33.6886C183.033 34.0566 182.911 34.4664 182.911 34.9233V36.4886C182.911 36.9455 183.033 37.3553 183.274 37.7233C183.521 38.098 183.844 38.3992 184.246 38.6288C184.641 38.8544 185.08 38.968 185.57 38.968H192.035C192.168 38.968 192.286 39.018 192.371 39.1102C192.47 39.1899 192.524 39.2996 192.524 39.4238V40.7739C192.524 40.9056 192.465 41.0185 192.371 41.1062C192.276 41.1941 192.156 41.2296 192.035 41.2296H185.675C185.554 41.2296 185.441 41.1946 185.344 41.1267L185.317 41.1078L185.297 41.0826C185.224 40.9921 185.186 40.8869 185.186 40.7739V40.6622H182.911V40.8717C182.911 41.3286 183.033 41.7384 183.274 42.1064C183.521 42.4811 183.844 42.7823 184.246 43.0119C184.641 43.2375 185.08 43.3511 185.57 43.3511H192.14C192.645 43.3511 193.092 43.2369 193.485 43.0119C193.887 42.7823 194.21 42.4811 194.457 42.1064C194.699 41.7384 194.821 41.3286 194.821 40.8717V39.3063C194.821 38.8495 194.699 38.4397 194.457 38.0716C194.21 37.697 193.887 37.3958 193.485 37.1662C193.092 36.9412 192.645 36.827 192.14 36.827H185.675C185.554 36.827 185.441 36.7919 185.344 36.7241L185.317 36.7051L185.297 36.6799C185.224 36.5895 185.186 36.4843 185.186 36.3712V35.0211C185.186 34.9085 185.224 34.7962 185.319 34.7083C185.413 34.6207 185.534 34.5654 185.675 34.5654H192.035C192.168 34.5654 192.286 34.6153 192.371 34.7075C192.47 34.7873 192.524 34.8969 192.524 35.0211V35.1328H194.821V34.9233C194.821 34.4664 194.699 34.0566 194.457 33.6886C194.21 33.3139 193.887 33.0127 193.485 32.7831C193.092 32.5581 192.645 32.4439 192.14 32.4439H185.57ZM183.998 32.4064C184.471 32.1363 184.997 32.002 185.57 32.002H192.14C192.726 32.002 193.259 32.1357 193.733 32.4064C194.199 32.6724 194.575 33.0236 194.861 33.4577C195.151 33.8984 195.295 34.3887 195.295 34.9233V35.5747H192.05V35.0337L192.034 35.0224L192.022 35.0072H185.675C185.674 35.0072 185.673 35.0073 185.673 35.0073L185.673 35.0074C185.673 35.0074 185.672 35.0074 185.672 35.0077C185.671 35.0081 185.667 35.0099 185.66 35.015C185.66 35.0166 185.66 35.0186 185.66 35.0211V36.3712C185.66 36.3759 185.661 36.3802 185.661 36.3842C185.666 36.3848 185.67 36.3851 185.675 36.3851H192.14C192.726 36.3851 193.259 36.5188 193.733 36.7895C194.199 37.0555 194.575 37.4066 194.861 37.8408C195.151 38.2815 195.295 38.7718 195.295 39.3063V40.8717C195.295 41.4063 195.151 41.8966 194.861 42.3373C194.575 42.7714 194.199 43.1225 193.733 43.3886C193.259 43.6593 192.726 43.793 192.14 43.793H185.57C184.997 43.793 184.471 43.6587 183.998 43.3886C183.532 43.1225 183.156 42.7714 182.87 42.3373C182.581 41.8966 182.437 41.4063 182.437 40.8717V40.2203H185.66V40.7739C185.66 40.7785 185.661 40.7828 185.661 40.7869C185.666 40.7875 185.67 40.7878 185.675 40.7878H192.035C192.038 40.7878 192.04 40.7877 192.042 40.7876C192.047 40.7816 192.049 40.778 192.049 40.7771L192.05 40.7762C192.05 40.7762 192.05 40.7754 192.05 40.7739V39.4364L192.034 39.425L192.022 39.4099H185.57C184.997 39.4099 184.471 39.2757 183.998 39.0055C183.532 38.7395 183.156 38.3883 182.87 37.9542C182.581 37.5135 182.437 37.0232 182.437 36.4886V34.9233C182.437 34.3887 182.581 33.8984 182.87 33.4577C183.156 33.0236 183.532 32.6724 183.998 32.4064ZM220.644 32.4439C220.17 32.4439 219.729 32.5568 219.318 32.784C218.917 33.0136 218.594 33.3144 218.348 33.6886C218.106 34.0566 217.984 34.4664 217.984 34.9233V43.3511H220.26V35.0211C220.26 34.9085 220.298 34.7962 220.392 34.7083C220.486 34.6207 220.608 34.5654 220.749 34.5654H227.166V32.4439H220.644ZM219.075 32.4048C219.559 32.1368 220.083 32.002 220.644 32.002H227.64V35.0072H220.749C220.747 35.0072 220.747 35.0074 220.747 35.0074C220.747 35.0074 220.746 35.0074 220.745 35.0077C220.745 35.0081 220.741 35.0098 220.734 35.015C220.734 35.0166 220.734 35.0186 220.734 35.0211V43.793H217.51V34.9233C217.51 34.3887 217.654 33.8984 217.944 33.4577C218.23 33.0236 218.606 32.6724 219.072 32.4064L219.075 32.4048ZM233.724 32.0412H236.948V40.7739C236.948 40.7786 236.948 40.7828 236.949 40.7869C236.953 40.7875 236.958 40.7878 236.963 40.7878H243.323C243.325 40.7878 243.327 40.7877 243.329 40.7876C243.335 40.7816 243.337 40.778 243.337 40.7771C243.337 40.7764 243.337 40.7761 243.337 40.7761C243.337 40.7761 243.338 40.7754 243.338 40.7739V32.0412H246.561V45.0787C246.561 45.6104 246.426 46.0986 246.152 46.5383C245.88 46.9893 245.5 47.3435 245.017 47.5978C244.545 47.8664 244.02 47.9999 243.449 47.9999H235.76V44.9752H243.309L243.321 44.9601L243.338 44.9487V43.793H236.858C236.297 43.793 235.773 43.6582 235.288 43.3902L235.286 43.3886C234.82 43.1225 234.443 42.7714 234.158 42.3373C233.868 41.8966 233.724 41.4063 233.724 40.8717V32.0412ZM234.198 32.483V40.8717C234.198 41.3286 234.32 41.7384 234.562 42.1064C234.808 42.4806 235.131 42.7814 235.532 43.0109C235.943 43.2382 236.383 43.3511 236.858 43.3511H243.812V44.9613C243.812 45.0855 243.758 45.1952 243.659 45.2749C243.573 45.3671 243.456 45.417 243.323 45.417H236.234V47.5581H243.449C243.939 47.5581 244.378 47.4444 244.773 47.2189L244.777 47.2167L244.781 47.2147C245.191 46.9997 245.509 46.7027 245.74 46.3206L245.741 46.3179C245.971 45.9493 246.087 45.5379 246.087 45.0787V32.483H243.812V40.7739C243.812 40.9056 243.752 41.0185 243.658 41.1062C243.564 41.1941 243.443 41.2296 243.323 41.2296H236.963C236.842 41.2296 236.729 41.1946 236.632 41.1267L236.605 41.1078L236.584 41.0826C236.511 40.9921 236.474 40.8869 236.474 40.7739V32.483H234.198ZM146.249 34.7083C146.343 34.6207 146.464 34.5654 146.605 34.5654H152.965C153.098 34.5654 153.216 34.6153 153.301 34.7075C153.4 34.7872 153.454 34.8969 153.454 35.0211V40.7739C153.454 40.9056 153.395 41.0185 153.3 41.1062C153.206 41.1941 153.086 41.2296 152.965 41.2296H146.605C146.484 41.2296 146.371 41.1946 146.274 41.1267L146.247 41.1078L146.227 41.0826C146.154 40.9921 146.116 40.8869 146.116 40.7739V35.0211C146.116 34.9085 146.154 34.7962 146.249 34.7083ZM146.59 35.015C146.59 35.0166 146.59 35.0186 146.59 35.0211V40.7739C146.59 40.7786 146.591 40.7828 146.591 40.7869C146.596 40.7875 146.6 40.7878 146.605 40.7878H152.965C152.968 40.7878 152.97 40.7877 152.972 40.7876C152.977 40.7816 152.979 40.778 152.979 40.7771C152.98 40.7764 152.98 40.7761 152.98 40.7761C152.98 40.7761 152.98 40.7754 152.98 40.7739V35.0337L152.964 35.0224L152.951 35.0072H146.605C146.604 35.0072 146.603 35.0074 146.603 35.0074C146.603 35.0074 146.602 35.0074 146.602 35.0077C146.601 35.0081 146.597 35.0099 146.59 35.015Z" fill="white"/>
<path d="M113.734 21.0251V1.2558H117.96L128.954 9.79506L139.918 1.2558H144.174V21.0251H140.297V6.52763L128.954 15.4513L117.581 6.55508V21.0251H113.734Z" fill="white"/>
<path d="M154.041 21.0251V1.2558H157.859V21.0251H154.041Z" fill="white"/>
<path d="M170.62 21.0251C169.882 21.0251 169.202 20.8512 168.58 20.5035C167.977 20.1557 167.492 19.698 167.122 19.1306C166.753 18.5448 166.569 17.9042 166.569 17.2086V5.07238C166.569 4.37679 166.753 3.74527 167.122 3.17782C167.492 2.59206 167.977 2.12528 168.58 1.77749C169.202 1.4297 169.882 1.2558 170.62 1.2558H187.497V4.90764H171.436C171.125 4.90764 170.873 4.99001 170.679 5.15475C170.504 5.3195 170.416 5.55746 170.416 5.86865V16.4123C170.416 16.7052 170.504 16.9431 170.679 17.1262C170.873 17.2909 171.125 17.3733 171.436 17.3733H187.497V21.0251H170.62Z" fill="white"/>
<path d="M212.815 21.0251L206.49 13.9137H211.533L217.013 20.0092V21.0251H212.815ZM196.084 21.0251V1.28326H212.99C213.729 1.28326 214.409 1.45715 215.031 1.80495C215.653 2.15274 216.148 2.61952 216.517 3.20528C216.887 3.77273 217.071 4.40425 217.071 5.09984V10.4266C217.071 11.1222 216.887 11.7628 216.517 12.3486C216.148 12.9344 215.653 13.4011 215.031 13.7489C214.409 14.0784 213.729 14.2432 212.99 14.2432L199.932 14.2706V21.0251H196.084ZM200.281 10.5913H212.815C212.913 10.5913 213 10.5639 213.078 10.509C213.155 10.454 213.194 10.3808 213.194 10.2893V5.23712C213.194 5.1456 213.155 5.07238 213.078 5.01747C213 4.94425 212.913 4.90764 212.815 4.90764H200.281C200.184 4.90764 200.097 4.94425 200.019 5.01747C199.961 5.07238 199.932 5.1456 199.932 5.23712V10.2893C199.932 10.3808 199.961 10.454 200.019 10.509C200.097 10.5639 200.184 10.5913 200.281 10.5913Z" fill="white"/>
<path d="M229.34 21.0251C228.601 21.0251 227.921 20.8512 227.299 20.5035C226.697 20.1557 226.211 19.698 225.842 19.1306C225.473 18.5448 225.288 17.9042 225.288 17.2086V5.07238C225.288 4.37679 225.473 3.74527 225.842 3.17782C226.211 2.59206 226.697 2.12528 227.299 1.77749C227.921 1.4297 228.601 1.2558 229.34 1.2558H242.223C242.962 1.2558 243.632 1.4297 244.235 1.77749C244.857 2.12528 245.352 2.59206 245.721 3.17782C246.091 3.74527 246.275 4.37679 246.275 5.07238V17.2086C246.275 17.9042 246.091 18.5448 245.721 19.1306C245.352 19.698 244.857 20.1557 244.235 20.5035C243.632 20.8512 242.962 21.0251 242.223 21.0251H229.34ZM229.485 17.3733H242.019C242.117 17.3733 242.204 17.3459 242.282 17.2909C242.359 17.2177 242.398 17.1353 242.398 17.0438V5.23712C242.398 5.1456 242.359 5.07238 242.282 5.01747C242.204 4.94425 242.117 4.90764 242.019 4.90764H229.485C229.388 4.90764 229.301 4.94425 229.223 5.01747C229.165 5.07238 229.136 5.1456 229.136 5.23712V17.0438C229.136 17.1353 229.165 17.2177 229.223 17.2909C229.301 17.3459 229.388 17.3733 229.485 17.3733Z" fill="white"/>
<path fill-rule="evenodd" clip-rule="evenodd" d="M113.533 21.2145V1.06641H118.054L128.953 9.50013L139.824 1.06641H144.374V21.2145H140.096V7.04743L128.954 15.7451L117.782 7.07222V21.2145H113.533ZM117.581 6.55508L128.954 15.4513L140.297 6.52763V21.0251H144.174V1.2558H139.918L128.954 9.79506L117.96 1.2558H113.734V21.0251H117.581V6.55508ZM153.839 21.2145V1.06641H158.06V21.2145H153.839ZM168.477 20.6662L168.475 20.6649C167.845 20.3015 167.337 19.8224 166.951 19.2295L166.949 19.2272C166.561 18.6116 166.367 17.9374 166.367 17.2085V5.07235C166.367 4.34392 166.561 3.67824 166.95 3.07991C167.336 2.4689 167.844 1.98003 168.475 1.61601L168.477 1.61462C169.131 1.24907 169.846 1.06641 170.62 1.06641H187.698V5.09697H171.436C171.168 5.09697 170.967 5.16651 170.817 5.29208C170.693 5.41075 170.617 5.59296 170.617 5.86862V16.4123C170.617 16.6633 170.69 16.851 170.821 16.992C170.971 17.1156 171.17 17.1839 171.436 17.1839H187.698V21.2145H170.62C169.846 21.2145 169.131 21.0318 168.477 20.6662ZM170.679 17.1262C170.504 16.9431 170.416 16.7052 170.416 16.4123V5.86865C170.416 5.55746 170.504 5.3195 170.679 5.15475C170.873 4.99001 171.125 4.90764 171.436 4.90764H187.497V1.2558H170.62C169.882 1.2558 169.202 1.4297 168.58 1.77749C167.977 2.12528 167.492 2.59206 167.122 3.17782C166.753 3.74527 166.569 4.37679 166.569 5.07238V17.2086C166.569 17.9042 166.753 18.5448 167.122 19.1306C167.492 19.698 167.977 20.1557 168.58 20.5035C169.202 20.8512 169.882 21.0251 170.62 21.0251H187.497V17.3733H171.436C171.125 17.3733 170.873 17.2909 170.679 17.1262ZM212.722 21.2145L206.701 14.4457L200.133 14.4595V21.2145H195.883V1.09386H212.99C213.764 1.09386 214.48 1.27655 215.133 1.64209C215.784 2.00577 216.303 2.4948 216.689 3.10711C217.078 3.70551 217.272 4.37127 217.272 5.09981V10.4265C217.272 11.1554 217.078 11.8296 216.69 12.4452C216.304 13.0582 215.784 13.5478 215.133 13.9117L215.129 13.914C214.476 14.2599 213.762 14.4324 212.991 14.4325M212.99 14.4325L212.264 14.434L217.214 19.9398V21.2145H212.722M211.831 14.2456L212.99 14.2432C213.729 14.2432 214.409 14.0784 215.031 13.7489C215.653 13.4011 216.148 12.9344 216.517 12.3486C216.887 11.7628 217.071 11.1222 217.071 10.4266V5.09984C217.071 4.40425 216.887 3.77273 216.517 3.20528C216.148 2.61952 215.653 2.15274 215.031 1.80495C214.409 1.45715 213.729 1.28326 212.99 1.28326H196.084V21.0251H199.932V14.2706L206.795 14.2562L212.815 21.0251H217.013V20.0092L211.831 14.2456ZM213.078 10.509C213.155 10.454 213.194 10.3808 213.194 10.2893V5.23712C213.194 5.1456 213.155 5.07238 213.078 5.01747C213 4.94425 212.913 4.90764 212.815 4.90764H200.281C200.184 4.90764 200.097 4.94425 200.019 5.01747C199.961 5.07238 199.932 5.1456 199.932 5.23712V10.2893C199.932 10.3808 199.961 10.454 200.019 10.509C200.097 10.5639 200.184 10.5913 200.281 10.5913H212.815C212.913 10.5913 213 10.5639 213.078 10.509ZM200.153 10.3665C200.142 10.3526 200.133 10.3305 200.133 10.2893V5.23709C200.133 5.18614 200.147 5.16445 200.161 5.15134C200.207 5.10854 200.245 5.09697 200.281 5.09697H212.815C212.852 5.09697 212.89 5.10854 212.936 5.15133L212.946 5.16085L212.957 5.16893C212.984 5.18809 212.993 5.20518 212.993 5.23709V10.2893C212.993 10.3212 212.984 10.3383 212.957 10.3574C212.914 10.3878 212.869 10.4019 212.815 10.4019H200.281C200.233 10.4019 200.192 10.3906 200.153 10.3665ZM227.197 20.6662L227.194 20.6649C226.565 20.3015 226.056 19.8224 225.67 19.2295L225.669 19.2272C225.281 18.6116 225.087 17.9374 225.087 17.2085V5.07235C225.087 4.34382 225.281 3.67805 225.67 3.07965C226.055 2.46876 226.564 1.97998 227.194 1.61601L227.197 1.61462C227.85 1.24909 228.566 1.06641 229.34 1.06641H242.223C242.997 1.06641 243.703 1.24886 244.338 1.61524C244.988 1.97885 245.507 2.46768 245.893 3.07965C246.282 3.67805 246.476 4.34382 246.476 5.07235V17.2085C246.476 17.9374 246.282 18.6116 245.894 19.2272L245.893 19.2295C245.506 19.8235 244.987 20.3026 244.338 20.6656C243.703 21.032 242.997 21.2145 242.223 21.2145H229.34C228.566 21.2145 227.85 21.0318 227.197 20.6662ZM244.235 20.5035C244.857 20.1557 245.352 19.698 245.721 19.1306C246.091 18.5448 246.275 17.9042 246.275 17.2086V5.07238C246.275 4.37679 246.091 3.74527 245.721 3.17782C245.352 2.59206 244.857 2.12528 244.235 1.77749C243.632 1.4297 242.962 1.2558 242.223 1.2558H229.34C228.601 1.2558 227.921 1.4297 227.299 1.77749C226.697 2.12528 226.211 2.59206 225.842 3.17782C225.473 3.74527 225.288 4.37679 225.288 5.07238V17.2086C225.288 17.9042 225.473 18.5448 225.842 19.1306C226.211 19.698 226.697 20.1557 227.299 20.5035C227.921 20.8512 228.601 21.0251 229.34 21.0251H242.223C242.962 21.0251 243.632 20.8512 244.235 20.5035ZM242.15 5.16085L242.14 5.15133C242.094 5.10854 242.056 5.09697 242.019 5.09697H229.485C229.449 5.09697 229.411 5.10854 229.365 5.15134C229.351 5.16446 229.337 5.18615 229.337 5.23709V17.0438C229.337 17.085 229.347 17.1208 229.368 17.1546C229.404 17.1745 229.442 17.1839 229.485 17.1839H242.019C242.068 17.1839 242.11 17.1722 242.15 17.1471C242.187 17.1086 242.197 17.0756 242.197 17.0438V5.23709C242.197 5.20517 242.188 5.18808 242.161 5.16893L242.15 5.16085ZM242.282 17.2909C242.204 17.3459 242.117 17.3733 242.019 17.3733H229.485C229.388 17.3733 229.301 17.3459 229.223 17.2909C229.165 17.2177 229.136 17.1353 229.136 17.0438V5.23712C229.136 5.1456 229.165 5.07238 229.223 5.01747C229.301 4.94425 229.388 4.90764 229.485 4.90764H242.019C242.117 4.90764 242.204 4.94425 242.282 5.01747C242.359 5.07238 242.398 5.1456 242.398 5.23712V17.0438C242.398 17.1353 242.359 17.2177 242.282 17.2909ZM154.041 1.2558H157.859V21.0251H154.041V1.2558Z" fill="white"/>
<g filter="url(#filter0_d_720_9666)">
<path d="M36.7406 0L1.14697 33.488L13.1326 44.8L37.2249 22.176L61.5593 44.8L73.545 33.488L36.7406 0Z" fill="url(#paint0_linear_720_9666)"/>
<path d="M36.7406 0L1.14697 33.488L13.1326 44.8L37.2249 22.176L61.5593 44.8L73.545 33.488L36.7406 0Z" fill="white" fill-opacity="0.2"/>
<path d="M89.3737 44.8L52.9326 10.976L64.9182 0L101.359 33.488L89.3737 44.8Z" fill="url(#paint1_linear_720_9666)"/>
<path d="M89.3737 44.8L52.9326 10.976L64.9182 0L101.359 33.488L89.3737 44.8Z" fill="white" fill-opacity="0.2"/>
</g>
<defs>
<filter id="filter0_d_720_9666" x="0.146973" y="0" width="102.212" height="47.8008" filterUnits="userSpaceOnUse" color-interpolation-filters="sRGB">
<feFlood flood-opacity="0" result="BackgroundImageFix"/>
<feColorMatrix in="SourceAlpha" type="matrix" values="0 0 0 0 0 0 0 0 0 0 0 0 0 0 0 0 0 0 127 0" result="hardAlpha"/>
<feOffset dy="2"/>
<feGaussianBlur stdDeviation="0.5"/>
<feComposite in2="hardAlpha" operator="out"/>
<feColorMatrix type="matrix" values="0 0 0 0 0 0 0 0 0 0 0 0 0 0 0 0 0 0 0.75 0"/>
<feBlend mode="normal" in2="BackgroundImageFix" result="effect1_dropShadow_720_9666"/>
<feBlend mode="normal" in="SourceGraphic" in2="effect1_dropShadow_720_9666" result="shape"/>
</filter>
<linearGradient id="paint0_linear_720_9666" x1="50.7239" y1="0" x2="50.7239" y2="44.8" gradientUnits="userSpaceOnUse">
<stop stop-color="#6F6F6F"/>
<stop offset="0.243291" stop-color="#A7A8A9"/>
<stop offset="0.430657" stop-color="#BABCBF"/>
<stop offset="0.492701" stop-color="#C9CACC"/>
<stop offset="0.671533" stop-color="#E0E0E0"/>
<stop offset="0.711679" stop-color="#DBDCDE"/>
<stop offset="0.895833" stop-color="#A7A8A9"/>
<stop offset="0.990736" stop-color="#6F6F6F"/>
</linearGradient>
<linearGradient id="paint1_linear_720_9666" x1="50.7239" y1="0" x2="50.7239" y2="44.8" gradientUnits="userSpaceOnUse">
<stop stop-color="#6F6F6F"/>
<stop offset="0.243291" stop-color="#A7A8A9"/>
<stop offset="0.430657" stop-color="#BABCBF"/>
<stop offset="0.492701" stop-color="#C9CACC"/>
<stop offset="0.671533" stop-color="#E0E0E0"/>
<stop offset="0.711679" stop-color="#DBDCDE"/>
<stop offset="0.895833" stop-color="#A7A8A9"/>
<stop offset="0.990736" stop-color="#6F6F6F"/>
</linearGradient>
</defs>
</svg>
