<svg width="24" height="24" viewBox="0 0 24 24" fill="none" xmlns="http://www.w3.org/2000/svg">
<path fill-rule="evenodd" clip-rule="evenodd" d="M19.875 13.125H16.5C14.6359 13.125 13.125 14.6359 13.125 16.5V19.875C13.125 21.7391 14.6359 23.25 16.5 23.25H19.875C21.7391 23.25 23.25 21.7391 23.25 19.875V16.5C23.25 14.6359 21.7391 13.125 19.875 13.125ZM7.5 13.125H4.125C2.26088 13.125 0.75 14.6359 0.75 16.5V19.875C0.75 21.7391 2.26088 23.25 4.125 23.25H7.5C9.36412 23.25 10.875 21.7391 10.875 19.875V16.5C10.875 14.6359 9.36412 13.125 7.5 13.125ZM19.875 0.75H16.5C14.6359 0.75 13.125 2.26088 13.125 4.125V7.5C13.125 9.36413 14.6359 10.875 16.5 10.875H19.875C21.7391 10.875 23.25 9.36413 23.25 7.5V4.125C23.25 2.26088 21.7391 0.75 19.875 0.75ZM10.875 4.125V7.5C10.875 9.36413 9.36412 10.875 7.5 10.875H4.125C2.26088 10.875 0.75 9.36413 0.75 7.5V4.125C0.75 2.26088 2.26088 0.75 4.125 0.75H7.5C9.36412 0.75 10.875 2.26088 10.875 4.125Z" fill="white"/>
</svg>
