<svg width="277" height="55" viewBox="0 0 277 55" fill="none" xmlns="http://www.w3.org/2000/svg">
<path d="M127.911 49.5186V36.7509H131V49.5186H127.911ZM127.911 33.3438V30.4381H131V33.3438H127.911Z" fill="#121315"/>
<path d="M139.489 49.5186V36.7509H150.124C150.721 36.7509 151.264 36.8903 151.751 37.1692C152.254 37.448 152.647 37.8149 152.93 38.2698C153.229 38.7248 153.378 39.2311 153.378 39.7887V49.5186H150.289V39.8988C150.289 39.8254 150.258 39.7667 150.195 39.7227C150.148 39.664 150.085 39.6346 150.006 39.6346H142.861C142.782 39.6346 142.712 39.664 142.649 39.7227C142.602 39.7667 142.578 39.8254 142.578 39.8988V49.5186H139.489Z" fill="#121315"/>
<path d="M164.562 49.5186C163.949 49.5186 163.399 49.3792 162.912 49.1003C162.424 48.8215 162.031 48.4546 161.733 47.9997C161.45 47.5447 161.308 47.0384 161.308 46.4808V39.7887C161.308 39.2311 161.45 38.7248 161.733 38.2698C162.031 37.8149 162.424 37.448 162.912 37.1692C163.399 36.8903 163.949 36.7509 164.562 36.7509H172.132L172.144 30.4592H175.221V49.5186H164.562ZM164.704 46.6349H171.849C171.928 46.6349 171.99 46.6129 172.038 46.5688C172.1 46.5101 172.132 46.4441 172.132 46.3707V39.8988C172.132 39.8254 172.1 39.7667 172.038 39.7227C171.99 39.664 171.928 39.6346 171.849 39.6346H164.704C164.625 39.6346 164.555 39.664 164.492 39.7227C164.444 39.7667 164.421 39.8254 164.421 39.8988V46.3707C164.421 46.4441 164.444 46.5101 164.492 46.5688C164.555 46.6129 164.625 46.6349 164.704 46.6349Z" fill="#121315"/>
<path d="M186.554 49.5186C185.956 49.5186 185.406 49.3792 184.903 49.1003C184.416 48.8215 184.023 48.4546 183.724 47.9997C183.441 47.5447 183.299 47.0384 183.299 46.4808V36.7509H186.389V46.3707C186.389 46.4441 186.412 46.5101 186.459 46.5688C186.522 46.6129 186.593 46.6349 186.672 46.6349H193.817C193.895 46.6349 193.958 46.6129 194.005 46.5688C194.068 46.5101 194.1 46.4441 194.1 46.3707V36.7509H197.189V46.4808C197.189 47.0384 197.039 47.5447 196.741 47.9997C196.458 48.4546 196.073 48.8215 195.585 49.1003C195.098 49.3792 194.548 49.5186 193.934 49.5186H186.554Z" fill="#121315"/>
<path d="M208.479 49.5186C207.882 49.5186 207.34 49.3792 206.852 49.1003C206.365 48.8215 205.972 48.4546 205.673 47.9997C205.375 47.5447 205.225 47.0384 205.225 46.4808V45.9965H208.314V46.3707C208.314 46.4441 208.338 46.5101 208.385 46.5688C208.448 46.6129 208.519 46.6349 208.597 46.6349H215.742C215.821 46.6349 215.884 46.6129 215.931 46.5688C215.994 46.5101 216.025 46.4441 216.025 46.3707V44.8518C216.025 44.7784 215.994 44.7197 215.931 44.6757C215.884 44.617 215.821 44.5876 215.742 44.5876H208.479C207.882 44.5876 207.34 44.4482 206.852 44.1694C206.365 43.8905 205.972 43.5237 205.673 43.0687C205.375 42.6138 205.225 42.1075 205.225 41.5498V39.7887C205.225 39.2311 205.375 38.7248 205.673 38.2698C205.972 37.8149 206.365 37.448 206.852 37.1692C207.34 36.8903 207.882 36.7509 208.479 36.7509H215.86C216.473 36.7509 217.024 36.8903 217.511 37.1692C217.998 37.448 218.391 37.8149 218.69 38.2698C218.989 38.7248 219.138 39.2311 219.138 39.7887V40.273H216.025V39.8988C216.025 39.8254 215.994 39.7667 215.931 39.7227C215.884 39.664 215.821 39.6346 215.742 39.6346H208.597C208.519 39.6346 208.448 39.664 208.385 39.7227C208.338 39.7667 208.314 39.8254 208.314 39.8988V41.4177C208.314 41.4911 208.338 41.5571 208.385 41.6158C208.448 41.6599 208.519 41.6819 208.597 41.6819H215.86C216.473 41.6819 217.024 41.8213 217.511 42.1001C217.998 42.379 218.391 42.7459 218.69 43.2008C218.989 43.6557 219.138 44.162 219.138 44.7197V46.4808C219.138 47.0384 218.989 47.5447 218.69 47.9997C218.391 48.4546 217.998 48.8215 217.511 49.1003C217.024 49.3792 216.473 49.5186 215.86 49.5186H208.479Z" fill="#121315"/>
<path d="M230.894 49.5186C230.297 49.5186 229.755 49.3792 229.267 49.1003C228.78 48.8215 228.387 48.4546 228.088 47.9997C227.79 47.5447 227.64 47.0384 227.64 46.4808V32.4775H230.729V36.7509H236.059V39.6346H230.729V46.3707C230.729 46.4441 230.753 46.5101 230.8 46.5688C230.863 46.6129 230.934 46.6349 231.012 46.6349H236.059V49.5186H230.894Z" fill="#121315"/>
<path d="M244.629 49.5186V39.7887C244.629 39.2311 244.778 38.7248 245.077 38.2698C245.376 37.8149 245.769 37.448 246.256 37.1692C246.759 36.8903 247.301 36.7509 247.883 36.7509H255.476V39.6346H248.001C247.922 39.6346 247.852 39.664 247.789 39.7227C247.742 39.7667 247.718 39.8254 247.718 39.8988V49.5186H244.629Z" fill="#121315"/>
<path d="M265.132 54.2515V51.3457H273.362C273.44 51.3457 273.503 51.3164 273.55 51.2577C273.613 51.2136 273.645 51.1549 273.645 51.0815V49.5186H266.099C265.517 49.5186 264.975 49.3792 264.472 49.1003C263.984 48.8215 263.591 48.4546 263.292 47.9997C262.994 47.5447 262.844 47.0384 262.844 46.4808V36.7949H265.934V46.3707C265.934 46.4441 265.957 46.5101 266.004 46.5688C266.067 46.6129 266.138 46.6349 266.217 46.6349H273.362C273.44 46.6349 273.503 46.6129 273.55 46.5688C273.613 46.5101 273.645 46.4441 273.645 46.3707V36.7949H276.734V51.2136C276.734 51.7713 276.592 52.2776 276.309 52.7325C276.026 53.2022 275.633 53.569 275.13 53.8332C274.643 54.112 274.1 54.2515 273.503 54.2515H265.132Z" fill="#121315"/>
<path fill-rule="evenodd" clip-rule="evenodd" d="M127.645 30.1895H131.266V33.5923H127.645V30.1895ZM128.177 30.6865V33.0952H130.734V30.6865H128.177ZM171.866 30.1895H175.487V49.7671H164.562C163.904 49.7671 163.305 49.6167 162.773 49.3122C162.249 49.0129 161.826 48.6179 161.506 48.1295L161.504 48.127L161.502 48.1244C161.194 47.6293 161.042 47.0795 161.042 46.4807V39.7887C161.042 39.1899 161.194 38.6401 161.502 38.1449L161.504 38.1424L161.506 38.1399C161.826 37.6515 162.249 37.2565 162.773 36.9572C163.305 36.6526 163.904 36.5023 164.562 36.5023H171.866V30.1895ZM172.398 30.6865V36.9994H164.562C163.995 36.9994 163.493 37.1279 163.051 37.381C162.6 37.6388 162.238 37.9768 161.961 38.3971C161.704 38.8112 161.574 39.2732 161.574 39.7887V46.4807C161.574 46.9962 161.704 47.4582 161.961 47.8722C162.238 48.2926 162.6 48.6305 163.051 48.8884C163.493 49.1415 163.995 49.27 164.562 49.27H174.955V30.6865H172.398ZM227.374 32.2289H230.995V36.5023H236.325V39.8831H230.995V46.3706C230.995 46.3759 230.996 46.3807 230.997 46.3852C231.001 46.3859 231.007 46.3863 231.012 46.3863H236.325V49.7671H230.894C230.25 49.7671 229.659 49.6161 229.128 49.3122C228.605 49.0129 228.182 48.6179 227.861 48.1295C227.536 47.6337 227.374 47.082 227.374 46.4807V32.2289ZM227.906 32.726V46.4807C227.906 46.9947 228.043 47.4557 228.315 47.8697C228.592 48.2913 228.955 48.63 229.406 48.8884C229.85 49.1421 230.344 49.27 230.894 49.27H235.792V46.8833H231.012C230.876 46.8833 230.749 46.8439 230.64 46.7676L230.61 46.7463L230.587 46.7179C230.505 46.6162 230.463 46.4978 230.463 46.3706V39.386H235.792V36.9994H230.463V32.726H227.906ZM127.645 36.5023H131.266V49.7671H127.645V36.5023ZM128.177 36.9994V49.27H130.734V36.9994H128.177ZM139.223 36.5023H150.124C150.767 36.5023 151.358 36.653 151.888 36.9563C152.427 37.2552 152.852 37.651 153.159 38.1424C153.483 38.6376 153.644 39.1883 153.644 39.7887V49.7671H150.023V39.9129L150.004 39.9002L149.991 39.8831H142.861C142.859 39.8831 142.858 39.8833 142.858 39.8833L142.858 39.8834L142.857 39.8837C142.856 39.8841 142.852 39.8861 142.844 39.8919C142.844 39.8937 142.844 39.896 142.844 39.8987V49.7671H139.223V36.5023ZM139.755 36.9994V49.27H142.312V39.8987C142.312 39.7721 142.354 39.6458 142.46 39.5469C142.566 39.4482 142.702 39.386 142.861 39.386H150.006C150.156 39.386 150.288 39.4422 150.384 39.546C150.495 39.6357 150.555 39.759 150.555 39.8987V49.27H153.112V39.7887C153.112 39.2747 152.975 38.8137 152.703 38.3996L152.701 38.3971L152.7 38.3945C152.441 37.9777 152.081 37.6408 151.615 37.3828L151.612 37.381C151.168 37.1272 150.674 36.9994 150.124 36.9994H139.755ZM183.033 36.5023H186.655V46.3706C186.655 46.3759 186.655 46.3807 186.656 46.3852C186.661 46.3859 186.666 46.3863 186.671 46.3863H193.817C193.819 46.3863 193.822 46.3862 193.824 46.386C193.83 46.3793 193.832 46.3753 193.833 46.3743C193.833 46.3735 193.833 46.3731 193.833 46.3731C193.833 46.3731 193.833 46.3723 193.833 46.3706V36.5023H197.455V46.4807C197.455 47.081 197.294 47.6318 196.969 48.127C196.664 48.6169 196.248 49.0127 195.724 49.3122C195.192 49.6167 194.593 49.7671 193.934 49.7671H186.554C185.909 49.7671 185.312 49.6161 184.767 49.314L184.764 49.3122C184.241 49.0129 183.817 48.6179 183.497 48.1295L183.495 48.127L183.494 48.1244C183.186 47.6293 183.033 47.0795 183.033 46.4807V36.5023ZM183.566 36.9994V46.4807C183.566 46.9962 183.696 47.4582 183.952 47.8722C184.229 48.2921 184.591 48.6298 185.04 48.8875C185.501 49.1424 186.004 49.27 186.554 49.27H193.934C194.502 49.27 195.004 49.1415 195.446 48.8884C195.896 48.6308 196.25 48.2936 196.51 47.8748L196.512 47.8723L196.514 47.8697C196.785 47.4557 196.922 46.9947 196.922 46.4807V36.9994H194.366V46.3706C194.366 46.5188 194.299 46.6459 194.193 46.7445C194.087 46.8434 193.952 46.8833 193.817 46.8833H186.671C186.535 46.8833 186.408 46.8439 186.299 46.7676L186.269 46.7463L186.246 46.7179C186.164 46.6161 186.122 46.4978 186.122 46.3706V36.9994H183.566ZM208.479 36.9994C207.929 36.9994 207.435 37.1272 206.991 37.381C206.54 37.6393 206.177 37.9781 205.9 38.3996C205.628 38.8137 205.491 39.2747 205.491 39.7887V41.5497C205.491 42.0637 205.628 42.5247 205.9 42.9388C206.177 43.3603 206.54 43.6991 206.991 43.9574C207.435 44.2112 207.929 44.339 208.479 44.339H215.742C215.892 44.339 216.024 44.3952 216.12 44.499C216.231 44.5887 216.292 44.712 216.292 44.8517V46.3706C216.292 46.5188 216.225 46.6458 216.119 46.7445C216.013 46.8434 215.878 46.8833 215.742 46.8833H208.597C208.461 46.8833 208.334 46.8439 208.225 46.7676L208.195 46.7463L208.172 46.7179C208.09 46.6162 208.048 46.4978 208.048 46.3706V46.2449H205.491V46.4807C205.491 46.9947 205.628 47.4557 205.9 47.8697C206.177 48.2913 206.54 48.63 206.991 48.8884C207.435 49.1421 207.929 49.27 208.479 49.27H215.86C216.428 49.27 216.929 49.1415 217.372 48.8884C217.823 48.63 218.186 48.2913 218.463 47.8697C218.735 47.4557 218.872 46.9947 218.872 46.4807V44.7196C218.872 44.2056 218.735 43.7446 218.463 43.3306C218.186 42.9091 217.823 42.5703 217.372 42.312C216.929 42.0588 216.428 41.9303 215.86 41.9303H208.597C208.461 41.9303 208.334 41.8909 208.225 41.8146L208.195 41.7933L208.172 41.7649C208.09 41.6632 208.048 41.5448 208.048 41.4176V39.8987C208.048 39.7721 208.091 39.6458 208.197 39.5469C208.302 39.4482 208.439 39.386 208.597 39.386H215.742C215.892 39.386 216.024 39.4422 216.12 39.546C216.231 39.6357 216.292 39.759 216.292 39.8987V40.0244H218.872V39.7887C218.872 39.2747 218.735 38.8137 218.463 38.3996C218.186 37.9781 217.823 37.6393 217.372 37.381C216.929 37.1279 216.428 36.9994 215.86 36.9994H208.479ZM206.713 36.9572C207.244 36.6533 207.835 36.5023 208.479 36.5023H215.86C216.519 36.5023 217.118 36.6526 217.65 36.9572C218.173 37.2565 218.596 37.6515 218.917 38.1399C219.243 38.6357 219.404 39.1873 219.404 39.7887V40.5215H215.759V39.9129L215.741 39.9002L215.727 39.8831H208.597C208.596 39.8831 208.595 39.8832 208.595 39.8832L208.595 39.8833C208.595 39.8833 208.594 39.8834 208.593 39.8837C208.592 39.8841 208.588 39.8861 208.581 39.8919C208.581 39.8937 208.581 39.896 208.581 39.8987V41.4176C208.581 41.4229 208.581 41.4277 208.582 41.4322C208.586 41.4329 208.592 41.4333 208.597 41.4333H215.86C216.519 41.4333 217.118 41.5836 217.65 41.8882C218.173 42.1875 218.596 42.5825 218.917 43.0708C219.243 43.5667 219.404 44.1183 219.404 44.7196V46.4807C219.404 47.082 219.243 47.6337 218.917 48.1295C218.596 48.6179 218.173 49.0129 217.65 49.3122C217.118 49.6167 216.519 49.7671 215.86 49.7671H208.479C207.835 49.7671 207.244 49.6161 206.713 49.3122C206.19 49.0129 205.767 48.6179 205.446 48.1295C205.121 47.6337 204.959 47.082 204.959 46.4807V45.7479H208.581V46.3706C208.581 46.3759 208.581 46.3807 208.582 46.3852C208.586 46.3859 208.592 46.3863 208.597 46.3863H215.742C215.745 46.3863 215.748 46.3862 215.75 46.386C215.756 46.3793 215.758 46.3753 215.758 46.3743L215.759 46.3732C215.759 46.3732 215.759 46.3723 215.759 46.3706V44.8659L215.741 44.8531L215.727 44.8361H208.479C207.835 44.8361 207.244 44.6851 206.713 44.3812C206.19 44.0819 205.767 43.6869 205.446 43.1985C205.121 42.7027 204.959 42.1511 204.959 41.5497V39.7887C204.959 39.1873 205.121 38.6357 205.446 38.1399C205.767 37.6515 206.19 37.2565 206.713 36.9572ZM247.883 36.9994C247.35 36.9994 246.855 37.1264 246.393 37.382C245.943 37.6403 245.58 37.9787 245.304 38.3996C245.032 38.8137 244.895 39.2747 244.895 39.7887V49.27H247.452V39.8987C247.452 39.7721 247.495 39.6458 247.601 39.5469C247.706 39.4482 247.842 39.386 248.001 39.386H255.21V36.9994H247.883ZM246.12 36.9554C246.664 36.6539 247.253 36.5023 247.883 36.5023H255.742V39.8831H248.001C247.999 39.8831 247.998 39.8833 247.998 39.8833C247.998 39.8833 247.998 39.8834 247.997 39.8837C247.996 39.8841 247.992 39.8861 247.985 39.8919C247.984 39.8937 247.984 39.896 247.984 39.8987V49.7671H244.363V39.7887C244.363 39.1873 244.524 38.6357 244.85 38.1399C245.171 37.6515 245.594 37.2565 246.117 36.9572L246.12 36.9554ZM262.578 36.5463H266.2V46.3706C266.2 46.3759 266.2 46.3807 266.201 46.3852C266.206 46.3859 266.211 46.3863 266.216 46.3863H273.362C273.365 46.3863 273.367 46.3862 273.369 46.386C273.375 46.3793 273.377 46.3753 273.378 46.3743C273.378 46.3735 273.378 46.3731 273.378 46.3731C273.378 46.3731 273.378 46.3723 273.378 46.3706V36.5463H277V51.2136C277 51.8117 276.848 52.3609 276.54 52.8556C276.234 53.363 275.808 53.7614 275.265 54.0475C274.735 54.3497 274.145 54.4999 273.503 54.4999H264.865V51.0971H273.346L273.36 51.0801L273.378 51.0673V49.7671H266.099C265.469 49.7671 264.879 49.6155 264.336 49.314L264.332 49.3122C263.809 49.0129 263.386 48.6179 263.065 48.1295C262.74 47.6337 262.578 47.082 262.578 46.4807V36.5463ZM263.111 37.0434V46.4807C263.111 46.9947 263.248 47.4557 263.519 47.8697C263.796 48.2907 264.158 48.6291 264.609 48.8873C265.071 49.143 265.566 49.27 266.099 49.27H273.911V51.0815C273.911 51.2212 273.851 51.3446 273.739 51.4343C273.643 51.538 273.511 51.5942 273.362 51.5942H265.398V54.0029H273.503C274.054 54.0029 274.547 53.875 274.991 53.6212L274.995 53.6188L275 53.6165C275.46 53.3747 275.818 53.0406 276.077 52.6106L276.079 52.6077C276.337 52.1929 276.467 51.7301 276.467 51.2136V37.0434H273.911V46.3706C273.911 46.5188 273.844 46.6458 273.738 46.7445C273.633 46.8434 273.497 46.8833 273.362 46.8833H266.216C266.08 46.8833 265.953 46.8439 265.844 46.7676L265.814 46.7463L265.791 46.7179C265.71 46.6161 265.667 46.4978 265.667 46.3706V37.0434H263.111ZM164.303 39.5469C164.409 39.4482 164.545 39.386 164.704 39.386H171.849C171.999 39.386 172.131 39.4422 172.227 39.546C172.338 39.6357 172.398 39.759 172.398 39.8987V46.3706C172.398 46.5188 172.331 46.6459 172.226 46.7445C172.12 46.8434 171.985 46.8833 171.849 46.8833H164.704C164.568 46.8833 164.441 46.8439 164.332 46.7676L164.301 46.7463L164.279 46.7179C164.197 46.6161 164.155 46.4978 164.155 46.3706V39.8987C164.155 39.7721 164.197 39.6458 164.303 39.5469ZM164.687 39.8919C164.687 39.8937 164.687 39.896 164.687 39.8987V46.3706C164.687 46.3759 164.687 46.3807 164.688 46.3852C164.693 46.3859 164.698 46.3863 164.704 46.3863H171.849C171.852 46.3863 171.854 46.3862 171.856 46.386C171.862 46.3793 171.865 46.3753 171.865 46.3743C171.865 46.3735 171.865 46.3731 171.865 46.3731C171.865 46.3731 171.866 46.3723 171.866 46.3706V39.9129L171.847 39.9001L171.834 39.8831H164.704C164.702 39.8831 164.701 39.8833 164.701 39.8833C164.701 39.8833 164.701 39.8834 164.7 39.8837C164.699 39.8841 164.695 39.8861 164.687 39.8919Z" fill="#121315"/>
<path d="M127.775 24.1528V1.91229H132.523L144.874 11.519L157.191 1.91229H161.972V24.1528H157.617V7.84309L144.874 17.8822L132.097 7.87398V24.1528H127.775Z" fill="#121315"/>
<path d="M173.057 24.1528V1.91229H177.347V24.1528H173.057Z" fill="#121315"/>
<path d="M191.684 24.1528C190.854 24.1528 190.09 23.9572 189.392 23.5659C188.715 23.1746 188.169 22.6598 187.754 22.0214C187.34 21.3624 187.132 20.6417 187.132 19.8591V6.20594C187.132 5.4234 187.34 4.71294 187.754 4.07456C188.169 3.41558 188.715 2.89046 189.392 2.49919C190.09 2.10792 190.854 1.91229 191.684 1.91229H210.645V6.0206H192.601C192.252 6.0206 191.968 6.11327 191.749 6.29861C191.553 6.48395 191.455 6.75166 191.455 7.10174V18.9633C191.455 19.2928 191.553 19.5605 191.749 19.7665C191.968 19.9518 192.252 20.0445 192.601 20.0445H210.645V24.1528H191.684Z" fill="#121315"/>
<path d="M239.088 24.1528L231.982 16.1524H237.647L243.804 23.0099V24.1528H239.088ZM220.291 24.1528V1.94317H239.285C240.114 1.94317 240.879 2.13881 241.577 2.53008C242.276 2.92134 242.832 3.44647 243.247 4.10545C243.662 4.74383 243.869 5.45429 243.869 6.23683V12.2294C243.869 13.012 243.662 13.7327 243.247 14.3917C242.832 15.0507 242.276 15.5758 241.577 15.9671C240.879 16.3377 240.114 16.5231 239.285 16.5231L224.614 16.554V24.1528H220.291ZM225.007 12.4148H239.088C239.197 12.4148 239.296 12.3839 239.383 12.3221C239.47 12.2603 239.514 12.1779 239.514 12.075V6.39128C239.514 6.28831 239.47 6.20594 239.383 6.14416C239.296 6.06179 239.197 6.0206 239.088 6.0206H225.007C224.898 6.0206 224.8 6.06179 224.712 6.14416C224.647 6.20594 224.614 6.28831 224.614 6.39128V12.075C224.614 12.1779 224.647 12.2603 224.712 12.3221C224.8 12.3839 224.898 12.4148 225.007 12.4148Z" fill="#121315"/>
<path d="M257.653 24.1528C256.823 24.1528 256.059 23.9572 255.36 23.5659C254.684 23.1746 254.138 22.6598 253.723 22.0214C253.308 21.3624 253.101 20.6417 253.101 19.8591V6.20594C253.101 5.4234 253.308 4.71294 253.723 4.07456C254.138 3.41558 254.684 2.89046 255.36 2.49919C256.059 2.10792 256.823 1.91229 257.653 1.91229H272.127C272.957 1.91229 273.71 2.10792 274.387 2.49919C275.085 2.89046 275.642 3.41558 276.057 4.07456C276.471 4.71294 276.679 5.4234 276.679 6.20594V19.8591C276.679 20.6417 276.471 21.3624 276.057 22.0214C275.642 22.6598 275.085 23.1746 274.387 23.5659C273.71 23.9572 272.957 24.1528 272.127 24.1528H257.653ZM257.816 20.0445H271.898C272.007 20.0445 272.105 20.0136 272.192 19.9518C272.28 19.8694 272.323 19.7768 272.323 19.6738V6.39128C272.323 6.28831 272.28 6.20594 272.192 6.14416C272.105 6.06179 272.007 6.0206 271.898 6.0206H257.816C257.707 6.0206 257.609 6.06179 257.522 6.14416C257.456 6.20594 257.423 6.28831 257.423 6.39128V19.6738C257.423 19.7768 257.456 19.8694 257.522 19.9518C257.609 20.0136 257.707 20.0445 257.816 20.0445Z" fill="#121315"/>
<path fill-rule="evenodd" clip-rule="evenodd" d="M127.549 24.3658V1.69922H132.628L144.873 11.1872L157.086 1.69922H162.198V24.3658H157.391V8.42787L144.874 18.2127L132.323 8.45576V24.3658H127.549ZM132.097 7.87398L144.874 17.8822L157.617 7.84309V24.1528H161.972V1.91229H157.191L144.874 11.519L132.523 1.91229H127.775V24.1528H132.097V7.87398ZM172.832 24.3658V1.69922H177.573V24.3658H172.832ZM189.276 23.749L189.274 23.7475C188.566 23.3387 187.995 22.7997 187.562 22.1327L187.56 22.1302C187.124 21.4375 186.906 20.6791 186.906 19.8591V6.20591C186.906 5.38642 187.124 4.63754 187.561 3.96441C187.994 3.27702 188.565 2.72705 189.274 2.31752L189.276 2.31596C190.011 1.90472 190.815 1.69922 191.684 1.69922H210.871V6.2336H192.601C192.299 6.2336 192.074 6.31184 191.905 6.4531C191.766 6.5866 191.681 6.79159 191.681 7.1017V18.9633C191.681 19.2457 191.762 19.4568 191.909 19.6155C192.078 19.7545 192.302 19.8314 192.601 19.8314H210.871V24.3658H191.684C190.815 24.3658 190.011 24.1603 189.276 23.749ZM191.749 19.7665C191.553 19.5605 191.455 19.2928 191.455 18.9633V7.10174C191.455 6.75166 191.553 6.48395 191.749 6.29861C191.968 6.11327 192.252 6.0206 192.601 6.0206H210.645V1.91229H191.684C190.854 1.91229 190.09 2.10792 189.392 2.49919C188.715 2.89046 188.169 3.41558 187.754 4.07456C187.34 4.71294 187.132 5.4234 187.132 6.20594V19.8591C187.132 20.6417 187.34 21.3624 187.754 22.0214C188.169 22.6598 188.715 23.1746 189.392 23.5659C190.09 23.9572 190.854 24.1528 191.684 24.1528H210.645V20.0445H192.601C192.252 20.0445 191.968 19.9518 191.749 19.7665ZM238.983 24.3658L232.219 16.7509L224.84 16.7665V24.3658H220.065V1.73011H239.285C240.154 1.73011 240.958 1.93563 241.692 2.34687C242.423 2.756 243.006 3.30616 243.44 3.99501C243.878 4.66821 244.095 5.41719 244.095 6.23679V12.2294C244.095 13.0493 243.877 13.8078 243.441 14.5004C243.007 15.19 242.423 15.7407 241.692 16.1502L241.688 16.1527C240.954 16.5419 240.152 16.736 239.285 16.7361M239.285 16.7361L238.469 16.7378L244.03 22.9318V24.3658H238.983M237.983 16.5258L239.285 16.5231C240.114 16.5231 240.879 16.3377 241.577 15.9671C242.276 15.5758 242.832 15.0507 243.247 14.3917C243.662 13.7327 243.869 13.012 243.869 12.2294V6.23683C243.869 5.45429 243.662 4.74383 243.247 4.10545C242.832 3.44647 242.276 2.92134 241.577 2.53008C240.879 2.13881 240.114 1.94317 239.285 1.94317H220.291V24.1528H224.614V16.554L232.324 16.5377L239.088 24.1528H243.804V23.0099L237.983 16.5258ZM239.383 12.3221C239.47 12.2603 239.514 12.1779 239.514 12.075V6.39128C239.514 6.28831 239.47 6.20594 239.383 6.14416C239.296 6.06179 239.197 6.0206 239.088 6.0206H225.007C224.898 6.0206 224.8 6.06179 224.712 6.14416C224.647 6.20594 224.614 6.28831 224.614 6.39128V12.075C224.614 12.1779 224.647 12.2603 224.712 12.3221C224.8 12.3839 224.898 12.4148 225.007 12.4148H239.088C239.197 12.4148 239.296 12.3839 239.383 12.3221ZM224.863 12.1618C224.851 12.1462 224.84 12.1213 224.84 12.0749V6.39124C224.84 6.33392 224.856 6.30952 224.872 6.29476C224.923 6.24662 224.966 6.2336 225.007 6.2336H239.088C239.129 6.2336 239.172 6.24662 239.223 6.29476L239.235 6.30547L239.248 6.31455C239.278 6.33611 239.288 6.35534 239.288 6.39124V12.0749C239.288 12.1108 239.278 12.1301 239.248 12.1516C239.199 12.1857 239.149 12.2017 239.088 12.2017H225.007C224.953 12.2017 224.907 12.1889 224.863 12.1618ZM255.245 23.749L255.242 23.7475C254.535 23.3387 253.964 22.7997 253.53 22.1327L253.529 22.1302C253.093 21.4375 252.875 20.6791 252.875 19.8591V6.20591C252.875 5.3863 253.093 4.63732 253.53 3.96412C253.963 3.27687 254.534 2.72699 255.242 2.31752L255.245 2.31596C255.979 1.90474 256.783 1.69922 257.653 1.69922H272.127C272.996 1.69922 273.789 1.90448 274.503 2.31666C275.233 2.72572 275.816 3.27565 276.25 3.96412C276.687 4.63732 276.905 5.38631 276.905 6.20591V19.8591C276.905 20.6791 276.687 21.4375 276.251 22.1301L276.249 22.1327C275.815 22.8009 275.232 23.3399 274.503 23.7483C273.789 24.1606 272.996 24.3658 272.127 24.3658H257.653C256.783 24.3658 255.979 24.1603 255.245 23.749ZM274.387 23.5659C275.085 23.1746 275.642 22.6598 276.057 22.0214C276.471 21.3624 276.679 20.6417 276.679 19.8591V6.20594C276.679 5.4234 276.471 4.71294 276.057 4.07456C275.642 3.41558 275.085 2.89046 274.387 2.49919C273.71 2.10792 272.957 1.91229 272.127 1.91229H257.653C256.823 1.91229 256.059 2.10792 255.36 2.49919C254.684 2.89046 254.138 3.41558 253.723 4.07456C253.308 4.71294 253.101 5.4234 253.101 6.20594V19.8591C253.101 20.6417 253.308 21.3624 253.723 22.0214C254.138 22.6598 254.684 23.1746 255.36 23.5659C256.059 23.9572 256.823 24.1528 257.653 24.1528H272.127C272.957 24.1528 273.71 23.9572 274.387 23.5659ZM272.044 6.30547L272.033 6.29476C271.982 6.24662 271.939 6.2336 271.898 6.2336H257.816C257.775 6.2336 257.732 6.24662 257.681 6.29476C257.666 6.30953 257.649 6.33393 257.649 6.39124V19.6738C257.649 19.7201 257.66 19.7605 257.684 19.7984C257.724 19.8208 257.767 19.8314 257.816 19.8314H271.898C271.953 19.8314 272 19.8182 272.044 19.79C272.086 19.7467 272.098 19.7096 272.098 19.6738V6.39124C272.098 6.35533 272.087 6.3361 272.057 6.31455L272.044 6.30547ZM272.192 19.9518C272.105 20.0136 272.007 20.0445 271.898 20.0445H257.816C257.707 20.0445 257.609 20.0136 257.522 19.9518C257.456 19.8694 257.423 19.7768 257.423 19.6738V6.39128C257.423 6.28831 257.456 6.20594 257.522 6.14416C257.609 6.06179 257.707 6.0206 257.816 6.0206H271.898C272.007 6.0206 272.105 6.06179 272.192 6.14416C272.28 6.20594 272.323 6.28831 272.323 6.39128V19.6738C272.323 19.7768 272.28 19.8694 272.192 19.9518ZM173.057 1.91229H177.347V24.1528H173.057V1.91229Z" fill="#121315"/>
<g clip-path="url(#clip0_702_9529)">
<g filter="url(#filter0_d_702_9529)">
<path d="M41.2764 0.5L1.28857 38.174L14.7539 50.9L41.8205 25.448L69.1591 50.9L82.6244 38.174L41.2764 0.5Z" fill="url(#paint0_linear_702_9529)"/>
<path d="M41.2764 0.5L1.28857 38.174L14.7539 50.9L41.8205 25.448L69.1591 50.9L82.6244 38.174L41.2764 0.5Z" fill="white" fill-opacity="0.2"/>
<path d="M100.407 50.9L59.4673 12.848L72.9326 0.5L113.873 38.174L100.407 50.9Z" fill="url(#paint1_linear_702_9529)"/>
<path d="M100.407 50.9L59.4673 12.848L72.9326 0.5L113.873 38.174L100.407 50.9Z" fill="white" fill-opacity="0.2"/>
</g>
</g>
<defs>
<filter id="filter0_d_702_9529" x="0.288574" y="0.5" width="114.584" height="53.4004" filterUnits="userSpaceOnUse" color-interpolation-filters="sRGB">
<feFlood flood-opacity="0" result="BackgroundImageFix"/>
<feColorMatrix in="SourceAlpha" type="matrix" values="0 0 0 0 0 0 0 0 0 0 0 0 0 0 0 0 0 0 127 0" result="hardAlpha"/>
<feOffset dy="2"/>
<feGaussianBlur stdDeviation="0.5"/>
<feComposite in2="hardAlpha" operator="out"/>
<feColorMatrix type="matrix" values="0 0 0 0 0 0 0 0 0 0 0 0 0 0 0 0 0 0 0.75 0"/>
<feBlend mode="normal" in2="BackgroundImageFix" result="effect1_dropShadow_702_9529"/>
<feBlend mode="normal" in="SourceGraphic" in2="effect1_dropShadow_702_9529" result="shape"/>
</filter>
<linearGradient id="paint0_linear_702_9529" x1="56.9859" y1="0.5" x2="56.9859" y2="50.9" gradientUnits="userSpaceOnUse">
<stop stop-color="#6F6F6F"/>
<stop offset="0.243291" stop-color="#A7A8A9"/>
<stop offset="0.430657" stop-color="#BABCBF"/>
<stop offset="0.492701" stop-color="#C9CACC"/>
<stop offset="0.671533" stop-color="#E0E0E0"/>
<stop offset="0.711679" stop-color="#DBDCDE"/>
<stop offset="0.895833" stop-color="#A7A8A9"/>
<stop offset="0.990736" stop-color="#6F6F6F"/>
</linearGradient>
<linearGradient id="paint1_linear_702_9529" x1="56.9859" y1="0.5" x2="56.9859" y2="50.9" gradientUnits="userSpaceOnUse">
<stop stop-color="#6F6F6F"/>
<stop offset="0.243291" stop-color="#A7A8A9"/>
<stop offset="0.430657" stop-color="#BABCBF"/>
<stop offset="0.492701" stop-color="#C9CACC"/>
<stop offset="0.671533" stop-color="#E0E0E0"/>
<stop offset="0.711679" stop-color="#DBDCDE"/>
<stop offset="0.895833" stop-color="#A7A8A9"/>
<stop offset="0.990736" stop-color="#6F6F6F"/>
</linearGradient>
<clipPath id="clip0_702_9529">
<rect width="115.953" height="54" fill="white" transform="translate(0 0.5)"/>
</clipPath>
</defs>
</svg>
