<?xml version="1.0" encoding="utf-8"?><svg viewBox="0 0 46 46" xmlns="http://www.w3.org/2000/svg" xmlns:xlink="http://www.w3.org/1999/xlink"><style>:root>svg{display:none}:root>svg:target{display:block}</style><svg fill="currentColor" viewBox="0 0 16 16" id="arrow" xmlns="http://www.w3.org/2000/svg"><path fill-rule="evenodd" clip-rule="evenodd" d="M11.374 15.707a1 1 0 0 1-1.414 0l-7-7a1 1 0 0 1 0-1.414l7-7a1 1 0 0 1 1.414 1.414L5.08 8l6.293 6.293a1 1 0 0 1 0 1.414Z"/></svg><svg fill="none" viewBox="0 0 12 13" id="arrow-down" xmlns="http://www.w3.org/2000/svg"><path fill-rule="evenodd" clip-rule="evenodd" d="M11.78 3.72a.75.75 0 0 1 0 1.06l-5.25 5.25a.75.75 0 0 1-1.06 0L.22 4.78a.75.75 0 1 1 1.06-1.06L6 8.44l4.72-4.72a.75.75 0 0 1 1.06 0Z" fill="currentColor"/></svg><svg fill="currentColor" viewBox="0 0 14 14" id="arrow-right" xmlns="http://www.w3.org/2000/svg"><path fill-rule="evenodd" clip-rule="evenodd" d="M7.895 1.772a.891.891 0 0 1 1.263 0l4.58 4.594a.898.898 0 0 1 0 1.267l-4.58 4.595a.891.891 0 0 1-1.263 0 .898.898 0 0 1 0-1.267l3.056-3.065H.893A.895.895 0 0 1 0 7c0-.495.4-.896.893-.896h10.058L7.895 3.04a.898.898 0 0 1 0-1.267Z"/></svg><svg fill="currentColor" viewBox="0 0 26 26" id="basket" xmlns="http://www.w3.org/2000/svg"><path fill-rule="evenodd" clip-rule="evenodd" d="M3.632 8.882c-1.338 0-2.358 1.248-2.132 2.556l1.873 10.818c.229 1.325 1.4 2.275 2.727 2.275h13.798a2.781 2.781 0 0 0 2.726-2.275l1.87-10.807v-.002c.247-1.316-.789-2.565-2.127-2.565H3.632Zm0 1.647h18.735a.504.504 0 0 1 .51.627l-1.873 10.812c-.102.537-.56.916-1.106.916H6.1a1.11 1.11 0 0 1-1.106-.907l-1.872-10.82c-.06-.351.166-.628.51-.628Z" fill="#1B2E59"/><path fill-rule="evenodd" clip-rule="evenodd" d="M3.632 8.733h18.735c1.427 0 2.53 1.325 2.276 2.728v.001l-1.872 10.817-.002.01v.006a2.93 2.93 0 0 1-2.87 2.385H6.1c-1.397 0-2.632-1-2.874-2.398L1.354 11.463c-.242-1.396.845-2.73 2.278-2.73Zm18.735.297H3.632c-1.244 0-2.196 1.164-1.985 2.383L3.519 22.23c.217 1.25 1.324 2.151 2.581 2.151h13.798a2.632 2.632 0 0 0 2.578-2.139v-.002l.001-.005v-.002l1.87-10.798v-.002l.002-.014c.229-1.225-.737-2.39-1.982-2.39ZM3.34 10.805a.398.398 0 0 0-.072.326l1.873 10.82a.96.96 0 0 0 .96.784h13.797c.474 0 .87-.328.96-.793v-.001l1.872-10.807.001-.01v-.004l.001-.002c.046-.245-.116-.44-.365-.44H3.632c-.13 0-.23.051-.292.127Zm-.23-.188a.66.66 0 0 1 .522-.237h18.735c.434 0 .736.363.658.79l-.001.006v.003L21.15 21.995v.001a1.266 1.266 0 0 1-1.252 1.036H6.1c-.617 0-1.148-.43-1.252-1.03l-1.872-10.82a.694.694 0 0 1 .134-.565Z" fill="#1B2E59"/><path fill-rule="evenodd" clip-rule="evenodd" d="M9.125 1.524a.823.823 0 0 0-.458.434L5.375 9.371a.824.824 0 0 0 1.505.669l3.291-7.413a.823.823 0 0 0-1.046-1.103Z" fill="#1B2E59"/><path fill-rule="evenodd" clip-rule="evenodd" d="M9.072 1.385a.97.97 0 0 1 1.235 1.303m0 0L7.015 10.1a.973.973 0 1 1-1.775-.79L8.53 1.897a.972.972 0 0 1 .54-.512m.622.29a.674.674 0 0 0-.89.343L5.51 9.431a.676.676 0 0 0 1.233.549l3.292-7.413a.674.674 0 0 0-.343-.891ZM16.873 1.524a.822.822 0 0 0-1.046 1.103l3.292 7.413a.823.823 0 1 0 1.503-.67L17.33 1.959a.823.823 0 0 0-.456-.434Z" fill="#1B2E59"/><path fill-rule="evenodd" clip-rule="evenodd" d="M16.185 1.404a.972.972 0 0 1 1.28.494m0 0 3.292 7.412a.975.975 0 0 1-.493 1.284.97.97 0 0 1-1.28-.494L15.69 2.688a.97.97 0 0 1 .494-1.284m.12.272a.674.674 0 0 0-.342.89l3.291 7.414a.675.675 0 0 0 1.245-.032.675.675 0 0 0-.013-.517l-3.292-7.413a.675.675 0 0 0-.889-.342ZM12.989 12.176a.823.823 0 0 0-.823.824v6.59a.824.824 0 0 0 1.405.582.824.824 0 0 0 .24-.583V13a.824.824 0 0 0-.822-.824Z" fill="#1B2E59"/><path fill-rule="evenodd" clip-rule="evenodd" d="M12.302 12.313A.971.971 0 0 1 13.96 13v6.59a.973.973 0 0 1-.971.971.971.971 0 0 1-.972-.972V13c0-.258.103-.505.285-.688Zm.687.012a.674.674 0 0 0-.675.675v6.59a.675.675 0 1 0 1.35 0V13a.675.675 0 0 0-.675-.675ZM9.697 12.176a.822.822 0 0 0-.823.824v6.59a.824.824 0 0 0 1.405.582.824.824 0 0 0 .241-.583V13a.824.824 0 0 0-.823-.824Z" fill="#1B2E59"/><path fill-rule="evenodd" clip-rule="evenodd" d="M9.01 12.313A.971.971 0 0 1 10.67 13v6.59a.973.973 0 0 1-1.659.687.973.973 0 0 1-.284-.688V13c0-.258.102-.505.284-.688Zm.687.012a.674.674 0 0 0-.674.675v6.59a.675.675 0 1 0 1.349 0V13a.675.675 0 0 0-.675-.675ZM16.28 12.176a.822.822 0 0 0-.823.824v6.59a.824.824 0 0 0 1.405.582.824.824 0 0 0 .241-.583V13a.824.824 0 0 0-.823-.824Z" fill="#1B2E59"/><path fill-rule="evenodd" clip-rule="evenodd" d="M15.594 12.313a.971.971 0 0 1 1.658.687v6.59a.973.973 0 0 1-.972.971.971.971 0 0 1-.971-.972V13c0-.258.102-.505.285-.688Zm.686.012a.674.674 0 0 0-.674.675v6.59a.675.675 0 1 0 1.349 0V13a.676.676 0 0 0-.675-.675Z" fill="#1B2E59"/></svg><svg fill="none" viewBox="0 0 46 46" id="basket-empty" xmlns="http://www.w3.org/2000/svg"><path fill-rule="evenodd" clip-rule="evenodd" d="M6.425 15.714c-2.367 0-4.17 2.21-3.77 4.522l3.312 19.14c.406 2.343 2.477 4.025 4.826 4.025h24.412a4.92 4.92 0 0 0 4.82-4.004l.002-.02 3.31-19.12v-.004c.435-2.33-1.397-4.54-3.765-4.54H6.425Zm0 2.914h33.147c.606 0 1.016.495.905 1.09a1.362 1.362 0 0 0-.003.02l-3.313 19.13a1.977 1.977 0 0 1-1.956 1.619H10.793c-.97 0-1.796-.675-1.957-1.605L5.524 19.738c-.108-.62.293-1.11.901-1.11Z" fill="#45B6F2"/><path fill-rule="evenodd" clip-rule="evenodd" d="M6.425 15.45h33.147c2.525 0 4.475 2.345 4.028 4.827v.002l-3.313 19.138-.003.018v.005l-.001.005a5.183 5.183 0 0 1-5.078 4.22H10.793c-2.472 0-4.657-1.77-5.085-4.243l-3.312-19.14c-.428-2.47 1.495-4.831 4.029-4.831Zm33.147.527H6.425c-2.2 0-3.885 2.058-3.512 4.215l3.313 19.14c.383 2.213 2.342 3.806 4.567 3.806h24.412c2.222 0 4.148-1.6 4.56-3.785v-.004l.002-.008v-.005l3.307-19.102v-.005l.005-.024c.404-2.168-1.303-4.228-3.507-4.228ZM5.91 19.117c-.11.135-.17.334-.128.576l3.313 19.144c.138.798.849 1.387 1.698 1.387h24.412c.839 0 1.54-.58 1.698-1.404v-.002l3.311-19.12.003-.018v-.005l.001-.005c.082-.434-.205-.779-.646-.779H6.425a.643.643 0 0 0-.515.226Zm-.407-.332c.216-.266.545-.42.922-.42h33.147c.768 0 1.302.641 1.164 1.397a.44.44 0 0 0-.002.012v.004l-3.315 19.136v.003a2.24 2.24 0 0 1-2.214 1.833H10.793c-1.092 0-2.032-.761-2.215-1.824L5.264 19.783c-.066-.377.022-.734.238-.998Z" fill="#45B6F2"/><path fill-rule="evenodd" clip-rule="evenodd" d="M16.144 2.696a1.455 1.455 0 0 0-.81.768L9.51 16.58a1.458 1.458 0 0 0 2.334 1.649c.139-.132.25-.29.328-.465l5.823-13.115a1.457 1.457 0 0 0-1.85-1.952Z" fill="#45B6F2"/><path fill-rule="evenodd" clip-rule="evenodd" d="M16.05 2.45a1.717 1.717 0 0 1 2.185 2.305m0 0L12.412 17.87a1.72 1.72 0 1 1-3.142-1.398l5.824-13.115a1.72 1.72 0 0 1 .956-.907m1.1.514a1.192 1.192 0 0 0-1.576.607L9.75 16.686a1.195 1.195 0 0 0 1.913 1.351c.114-.108.205-.237.269-.38L17.755 4.54a1.197 1.197 0 0 0-.605-1.577ZM29.853 2.696a1.455 1.455 0 0 0-1.851 1.952l5.823 13.115a1.456 1.456 0 1 0 2.66-1.184L30.66 3.464a1.456 1.456 0 0 0-.808-.768Z" fill="#45B6F2"/><path fill-rule="evenodd" clip-rule="evenodd" d="M28.635 2.484a1.717 1.717 0 0 1 2.266.873m0 0 5.823 13.115a1.722 1.722 0 0 1-.872 2.271 1.718 1.718 0 0 1-2.266-.873L27.762 4.755a1.72 1.72 0 0 1 .873-2.271m.213.48a1.194 1.194 0 0 0-.606 1.577l5.823 13.115a1.194 1.194 0 0 0 1.954.338 1.195 1.195 0 0 0 .225-1.308L30.421 3.57a1.193 1.193 0 0 0-1.573-.607Z" fill="#45B6F2"/></svg><svg fill="none" viewBox="0 0 12 12" id="close" xmlns="http://www.w3.org/2000/svg"><path fill-rule="evenodd" clip-rule="evenodd" d="M11.749.251a.857.857 0 0 1 0 1.212L1.463 11.75a.857.857 0 1 1-1.212-1.212L10.537.25a.857.857 0 0 1 1.212 0Z" fill="currentColor"/><path fill-rule="evenodd" clip-rule="evenodd" d="M.251.251a.857.857 0 0 1 1.212 0L11.75 10.537a.857.857 0 1 1-1.212 1.212L.25 1.463a.857.857 0 0 1 0-1.212Z" fill="currentColor"/></svg><svg fill="none" viewBox="0 0 20 21" id="delete" xmlns="http://www.w3.org/2000/svg"><path fill-rule="evenodd" clip-rule="evenodd" d="M7.998 2.773a1.29 1.29 0 0 0-1.29 1.29v1.289h6.56v-1.29a1.29 1.29 0 0 0-1.29-1.289h-3.98Zm6.668 2.579v-1.29a2.688 2.688 0 0 0-2.689-2.687H7.998A2.688 2.688 0 0 0 5.31 4.063v1.289H3.025a.7.7 0 1 0 0 1.398h.295v10.238a2.688 2.688 0 0 0 2.689 2.687h7.958a2.688 2.688 0 0 0 2.688-2.688V6.75h.296a.7.7 0 1 0 0-1.398h-2.285Zm.59 1.398H4.72v10.238c0 .712.577 1.289 1.29 1.289h7.958a1.29 1.29 0 0 0 1.29-1.29V6.75ZM7.999 9.329a.7.7 0 0 1 .7.699v4.971a.7.7 0 0 1-1.4 0v-4.971a.7.7 0 0 1 .7-.7Zm3.98 0a.7.7 0 0 1 .699.699v4.971a.7.7 0 0 1-1.4 0v-4.971a.7.7 0 0 1 .7-.7Z" fill="currentColor"/></svg><svg fill="none" viewBox="0 0 26 26" id="document" xmlns="http://www.w3.org/2000/svg"><path d="M3.625 10.915c0-3.928 0-5.892 1.22-7.113 1.22-1.22 3.185-1.22 7.113-1.22h2.084c3.928 0 5.892 0 7.113 1.22 1.22 1.22 1.22 3.185 1.22 7.113v4.167c0 3.928 0 5.893-1.22 7.113-1.22 1.22-3.185 1.22-7.113 1.22h-2.084c-3.928 0-5.892 0-7.113-1.22-1.22-1.22-1.22-3.185-1.22-7.113v-4.167Z" fill="#8598C7"/><path fill-rule="evenodd" clip-rule="evenodd" d="M8.052 9.875c0-.431.35-.781.782-.781h6.77a.781.781 0 1 1 0 1.562h-6.77a.781.781 0 0 1-.782-.781Zm0 4.167c0-.432.35-.782.782-.782h3.125a.781.781 0 0 1 0 1.563H8.834a.781.781 0 0 1-.782-.781Zm0 4.166c0-.431.35-.78.782-.78h1.562a.781.781 0 1 1 0 1.562H8.833a.781.781 0 0 1-.78-.782ZM20.031 21.594c-2.21 0-3.314 0-4-.687-.687-.686-.687-1.791-.687-4 0-2.21 0-3.315.686-4.002.687-.686 1.791-.686 4.001-.686 2.21 0 3.315 0 4.001.686.687.687.687 1.792.687 4.001 0 2.21 0 3.315-.687 4.001-.686.687-1.791.687-4 .687Zm0-1.992a.352.352 0 0 0 .352-.352v-2.813a.352.352 0 1 0-.703 0v2.813c0 .194.157.352.351.352Zm0-5.04a.469.469 0 1 1 0 .938.469.469 0 0 1 0-.938Z" fill="#fff"/></svg><svg fill="none" viewBox="0 0 26 26" id="document-add" xmlns="http://www.w3.org/2000/svg"><path d="M3.625 10.92c0-3.93 0-5.893 1.22-7.114 1.22-1.22 3.185-1.22 7.113-1.22h2.084c3.928 0 5.892 0 7.113 1.22 1.22 1.22 1.22 3.185 1.22 7.113v4.167c0 3.928 0 5.893-1.22 7.113-1.22 1.22-3.185 1.22-7.113 1.22h-2.084c-3.928 0-5.892 0-7.113-1.22-1.22-1.22-1.22-3.185-1.22-7.113v-4.167Z" fill="#8598C7"/><path d="M17.707 17.688c.183-.142.348-.307.678-.638l4.123-4.123c.1-.1.054-.27-.08-.317a4.513 4.513 0 0 1-1.711-1.078 4.512 4.512 0 0 1-1.078-1.712c-.046-.133-.218-.178-.317-.079l-4.123 4.123c-.33.33-.496.496-.638.678a3.757 3.757 0 0 0-.429.694c-.1.209-.173.43-.32.874l-.192.573-.304.912-.285.855a.608.608 0 0 0 .769.768l.854-.285.912-.304.573-.19c.444-.149.666-.223.874-.322.246-.117.48-.261.694-.429ZM23.799 11.635a2.253 2.253 0 1 0-3.187-3.186l-.132.132a.546.546 0 0 0-.154.485c.02.112.057.276.125.471.136.39.392.904.874 1.386.482.482.995.738 1.385.873.196.068.36.105.471.126a.546.546 0 0 0 .485-.154l.133-.133Z" fill="#fff"/><path fill-rule="evenodd" clip-rule="evenodd" d="M8.052 9.875c0-.431.35-.781.782-.781h6.77a.781.781 0 1 1 0 1.562h-6.77a.781.781 0 0 1-.782-.781Zm0 4.167c0-.432.35-.782.782-.782h3.125a.781.781 0 0 1 0 1.563H8.834a.781.781 0 0 1-.782-.781Zm0 4.166c0-.431.35-.78.782-.78h1.562a.781.781 0 1 1 0 1.562H8.833a.781.781 0 0 1-.78-.782Z" fill="#fff"/></svg><svg fill="none" viewBox="0 0 24 24" id="download" xmlns="http://www.w3.org/2000/svg"><g clip-path="url(#ja)" fill="#45B6F2"><path d="M12.681.3a.923.923 0 0 0-1.362 0L6.396 5.685A.923.923 0 0 0 7.758 6.93l3.319-3.63v13.622a.923.923 0 0 0 1.846 0V3.301l3.319 3.63a.923.923 0 1 0 1.362-1.246L12.681.3Z"/><path d="M1.846 15.693a.923.923 0 1 0-1.846 0v.067c0 1.683 0 3.04.143 4.107.15 1.108.468 2.04 1.209 2.781.74.741 1.673 1.06 2.781 1.209C5.2 24 6.557 24 8.24 24h7.52c1.683 0 3.04 0 4.107-.143 1.108-.149 2.04-.468 2.781-1.209.741-.74 1.06-1.673 1.209-2.78C24 18.8 24 17.442 24 15.76v-.067a.923.923 0 0 0-1.846 0c0 1.766-.002 2.998-.127 3.928-.122.903-.344 1.381-.684 1.722-.34.34-.82.563-1.722.684-.93.125-2.162.127-3.929.127H8.308c-1.767 0-3-.002-3.929-.127-.903-.121-1.381-.343-1.722-.684-.34-.34-.562-.819-.684-1.722-.125-.93-.127-2.162-.127-3.928Z"/></g><defs><clipPath id="ja"><path fill="#fff" d="M0 0h24v24H0z"/></clipPath></defs></svg><svg fill="none" viewBox="0 0 14 17" id="fav" xmlns="http://www.w3.org/2000/svg"><path fill-rule="evenodd" clip-rule="evenodd" d="M2.23 1.309C3.374.599 5.002.32 7 .32c1.998 0 3.626.279 4.77.989 1.203.747 1.776 1.908 1.776 3.404v10.385c0 1.41-1.781 2.116-2.823 1.12l-3.509-3.36a.313.313 0 0 0-.428 0l-3.509 3.36c-1.041.996-2.822.29-2.822-1.12V4.713c0-1.496.572-2.657 1.775-3.404Z" stroke="currenColor" fill="#FFD029"/></svg><svg fill="currentColor" viewBox="0 0 14 13" id="mail" xmlns="http://www.w3.org/2000/svg"><path d="M14 3.957v6.776a1.4 1.4 0 0 1-1.4 1.4H1.4a1.4 1.4 0 0 1-1.4-1.4V4.216l1.4.763 5.264 2.87a.7.7 0 0 0 .686-.014l5.25-3.059 1.4-.819Z"/><path d="m14 1.9-1.4.826L7 5.995 1.4 2.95 0 2.18V1.9A1.4 1.4 0 0 1 1.4.5h11.2A1.4 1.4 0 0 1 14 1.9Z"/></svg><svg fill="currentColor" viewBox="0 0 18 22" id="mark" xmlns="http://www.w3.org/2000/svg"><path fill-rule="evenodd" clip-rule="evenodd" d="M9 .041c-2.666 0-4.849.372-6.386 1.326C.993 2.373.223 3.937.223 5.949v13.845c0 1.929 2.43 2.886 3.848 1.529l4.678-4.479a.367.367 0 0 1 .502 0l4.678 4.479c1.418 1.357 3.848.4 3.848-1.529V5.95c0-2.011-.77-3.576-2.39-4.582C13.848.413 11.666.04 9 .04Zm0 1.824c-2.552 0-4.283.368-5.354 1.033-.496.308-.876.695-1.132 1.191-.257.497-.391 1.106-.391 1.86v13.845c0 .297.38.454.605.238l4.678-4.479a2.325 2.325 0 0 1 3.187 0l4.678 4.479c.226.216.606.059.606-.238V5.95c0-.754-.134-1.363-.39-1.86-.257-.496-.637-.883-1.133-1.19C13.283 2.232 11.552 1.864 9 1.864Z" fill="#1B2E59"/></svg><svg fill="none" viewBox="0 0 13 13" id="minus" xmlns="http://www.w3.org/2000/svg"><g clip-path="url(#na)"><path d="M12.5 5.75H.5v1.5h12v-1.5Z" fill="#91949E"/></g><defs><clipPath id="na"><path fill="#fff" transform="translate(.5 .5)" d="M0 0h12v12H0z"/></clipPath></defs></svg><svg fill="none" viewBox="0 0 13 13" id="plus" xmlns="http://www.w3.org/2000/svg"><g clip-path="url(#oa)"><path d="M7.249 5.751V.5H5.75v5.251H.5V7.25h5.251V12.5H7.25V7.249H12.5V5.75H7.249Z" fill="#121315"/></g><defs><clipPath id="oa"><path fill="#fff" transform="translate(.5 .5)" d="M0 0h12v12H0z"/></clipPath></defs></svg><svg fill="currentColor" viewBox="0 0 16 16" id="point" xmlns="http://www.w3.org/2000/svg"><path d="M8 0a6.293 6.293 0 0 0-6.286 6.286c0 5.378 5.715 9.44 5.958 9.61a.573.573 0 0 0 .656 0c.244-.17 5.958-4.232 5.958-9.61A6.294 6.294 0 0 0 8 0Zm0 4a2.286 2.286 0 1 1 0 4.572A2.286 2.286 0 0 1 8 4Z"/></svg><svg fill="currentColor" viewBox="0 0 26 26" id="profile" xmlns="http://www.w3.org/2000/svg"><path fill-rule="evenodd" clip-rule="evenodd" d="M13 7.593a2.72 2.72 0 0 0-2.725 2.725 2.713 2.713 0 0 0 2.573 2.713c.099-.008.204-.01.307 0a2.72 2.72 0 0 0 2.57-2.715A2.727 2.727 0 0 0 13 7.593Zm-4.34 2.725A4.336 4.336 0 0 1 13 5.978a4.343 4.343 0 0 1 4.34 4.34v.005a4.336 4.336 0 0 1-4.183 4.324.802.802 0 0 1-.139-.007h-.014c-.013 0-.025 0-.033.002a.802.802 0 0 1-.128.005 4.329 4.329 0 0 1-4.184-4.329ZM8.096 18.841c-.83.559-1.293 1.198-1.474 1.806A9.885 9.885 0 0 0 13 22.963c2.43 0 4.648-.867 6.378-2.316-.181-.608-.645-1.247-1.475-1.806-1.304-.872-3.076-1.334-4.895-1.334-1.818 0-3.597.461-4.912 1.334Zm4.912-2.95c2.064 0 4.168.52 5.794 1.607l.002.002c1.295.871 2.12 2.054 2.258 3.363a.808.808 0 0 1-.257.681A11.508 11.508 0 0 1 13 24.578c-3.01 0-5.745-1.147-7.805-3.034a.808.808 0 0 1-.257-.68c.139-1.31.963-2.493 2.258-3.364a.701.701 0 0 1 .004-.003c1.636-1.086 3.744-1.605 5.808-1.605Z" fill="#1B2E59"/><path fill-rule="evenodd" clip-rule="evenodd" d="M7.144 17.412c1.656-1.1 3.785-1.622 5.864-1.622 2.079 0 4.204.523 5.85 1.624l.002.001c1.314.884 2.16 2.091 2.303 3.437a.91.91 0 0 1-.29.767A11.61 11.61 0 0 1 13 24.68a11.609 11.609 0 0 1-7.873-3.06.91.91 0 0 1-.29-.767c.143-1.346.99-2.553 2.302-3.437m0 0 .005-.003Zm5.869-1.422c-2.048 0-4.136.516-5.752 1.588l-.003.003c-1.278.86-2.08 2.018-2.214 3.29a.706.706 0 0 0 .225.595A11.406 11.406 0 0 0 13 24.477c2.984 0 5.694-1.138 7.736-3.008a.706.706 0 0 0 .225-.595c-.135-1.272-.936-2.43-2.214-3.29l-.002-.001c-1.605-1.075-3.689-1.59-5.737-1.59Zm0 1.616c-1.802 0-3.56.457-4.855 1.317-.785.528-1.228 1.125-1.414 1.686A9.783 9.783 0 0 0 13 22.861c2.381 0 4.556-.84 6.26-2.249-.185-.562-.628-1.158-1.414-1.687-1.283-.858-3.034-1.316-4.838-1.316ZM8.04 18.757c1.335-.887 3.135-1.351 4.968-1.351 1.834 0 3.628.465 4.951 1.35.846.57 1.327 1.227 1.516 1.862a.102.102 0 0 1-.032.107A9.987 9.987 0 0 1 13 23.065a9.987 9.987 0 0 1-6.443-2.34.102.102 0 0 1-.032-.107c.189-.635.67-1.292 1.514-1.86v-.001Z" fill="#1B2E59"/><path fill-rule="evenodd" clip-rule="evenodd" d="M1.422 13C1.422 6.606 6.606 1.422 13 1.422c6.394 0 11.578 5.184 11.578 11.578 0 6.394-5.184 11.578-11.578 11.578-6.394 0-11.578-5.184-11.578-11.578ZM13 3.037c-5.502 0-9.963 4.46-9.963 9.963 0 5.502 4.46 9.962 9.963 9.962 5.502 0 9.962-4.46 9.962-9.962S18.502 3.037 13 3.037Z" fill="#1B2E59"/><path fill-rule="evenodd" clip-rule="evenodd" d="M1.32 13C1.32 6.55 6.55 1.32 13 1.32c6.45 0 11.68 5.23 11.68 11.68 0 6.45-5.23 11.68-11.68 11.68-6.45 0-11.68-5.23-11.68-11.68ZM13 1.523C6.662 1.523 1.523 6.662 1.523 13S6.662 24.477 13 24.477 24.477 19.338 24.477 13 19.338 1.523 13 1.523Zm0 1.616c-5.446 0-9.861 4.415-9.861 9.86 0 5.447 4.415 9.862 9.86 9.862 5.447 0 9.862-4.415 9.862-9.861 0-5.446-4.415-9.861-9.861-9.861Zm-10.064 9.86C2.936 7.443 7.442 2.937 13 2.937S23.064 7.442 23.064 13 18.558 23.064 13 23.064 2.936 18.558 2.936 13Z" fill="#1B2E59"/></svg><svg fill="currentColor" viewBox="0 0 20 20" id="search" xmlns="http://www.w3.org/2000/svg"><g clip-path="url(#ra)" fill-rule="evenodd" clip-rule="evenodd" fill="#1B2E59"><path d="M9 2a7 7 0 1 0 0 14A7 7 0 0 0 9 2ZM0 9a9 9 0 1 1 18 0A9 9 0 0 1 0 9Z"/><path d="M13.943 13.943a1 1 0 0 1 1.414 0l4.35 4.35a1 1 0 0 1-1.414 1.414l-4.35-4.35a1 1 0 0 1 0-1.414Z"/></g><defs><clipPath id="ra"><path fill="#fff" d="M0 0h20v20H0z"/></clipPath></defs></svg><svg fill="none" viewBox="0 0 18 18" id="settings" xmlns="http://www.w3.org/2000/svg"><g clip-path="url(#sa)" fill-rule="evenodd" clip-rule="evenodd" fill="#1E3362"><path d="M3.278 4.057a2.83 2.83 0 0 1 5.444 0h8.507a.771.771 0 0 1 0 1.543H8.722a2.83 2.83 0 0 1-5.444 0H.77a.771.771 0 1 1 0-1.543h2.507ZM10.278 12.057a2.83 2.83 0 0 1 5.444 0h1.507a.771.771 0 0 1 0 1.543h-1.507a2.83 2.83 0 0 1-5.444 0H.77a.771.771 0 0 1 0-1.543h9.507Z"/></g><defs><clipPath id="sa"><path fill="#fff" d="M0 0h18v18H0z"/></clipPath></defs></svg><svg fill="none" viewBox="0 0 20 20" id="sidebarbtn" xmlns="http://www.w3.org/2000/svg"><path fill-rule="evenodd" clip-rule="evenodd" d="M.625 5.706c0-.39.318-.706.71-.706h9.891c.393 0 .71.316.71.706 0 .39-.317.705-.71.705h-9.89a.708.708 0 0 1-.711-.705Zm0 4.294c0-.39.318-.706.71-.706H6.9c.393 0 .71.316.71.706 0 .39-.317.706-.71.706H1.336A.708.708 0 0 1 .625 10Zm0 4.294c0-.39.318-.705.71-.705h9.891c.393 0 .71.316.71.705 0 .39-.317.706-.71.706h-9.89a.708.708 0 0 1-.711-.706ZM17.292 14.793a.715.715 0 0 1-1.006 0L11.96 10.5a.702.702 0 0 1 0-.998l4.326-4.294a.715.715 0 0 1 1.006 0 .702.702 0 0 1 0 .997L13.467 10l3.825 3.796a.702.702 0 0 1 0 .997Z" fill="#E6EBF6"/></svg><svg fill="none" viewBox="0 0 16 17" id="tel" xmlns="http://www.w3.org/2000/svg"><g clip-path="url(#ua)"><path d="m11.162 10.765-.405.426s-.962 1.013-3.589-1.752C4.542 6.673 5.504 5.66 5.504 5.66l.255-.268c.628-.662.687-1.723.14-2.498L4.776 1.309C4.1.349 2.79.223 2.011 1.04L.616 2.51c-.385.406-.644.932-.612 1.515.08 1.493.718 4.705 4.278 8.453 3.774 3.974 7.316 4.132 8.765 3.99.458-.046.856-.293 1.177-.631l1.263-1.33c.853-.897.612-2.435-.478-3.063l-1.699-.978a1.737 1.737 0 0 0-2.148.299Z" fill="currentColor"/></g><defs><clipPath id="ua"><path fill="#fff" transform="translate(0 .5)" d="M0 0h16v16H0z"/></clipPath></defs></svg></svg>