<svg width="64" height="64" viewBox="0 0 64 64" fill="none" xmlns="http://www.w3.org/2000/svg">
<rect width="64" height="64" rx="16" fill="white"/>
<path d="M39.2505 40.58C39.2505 40.2282 39.3801 39.8763 39.6579 39.5985C40.195 39.0614 41.0839 39.0614 41.621 39.5985L45.4175 43.395C48.1954 40.1356 49.8992 35.9316 49.8992 31.3203C49.8992 21.0975 41.6024 12.8008 31.3797 12.8008C21.1569 12.8008 12.8602 21.0975 12.8602 31.3203C12.8602 41.543 21.1569 49.8398 31.3797 49.8398C35.991 49.8398 40.195 48.136 43.4544 45.3581L39.6579 41.5616C39.3801 41.2838 39.2505 40.9319 39.2505 40.58Z" fill="#DEE5F5"/>
<path d="M50.2697 51.1361C50.6031 50.9879 50.8808 50.7287 51.029 50.3768C51.1031 50.2101 51.1401 50.0249 51.1401 49.8397V42.4319C51.1401 41.6726 50.5105 41.043 49.7512 41.043C48.9919 41.043 48.3622 41.6726 48.3622 42.4319V46.4877L45.2694 43.3951C44.6583 44.0989 44.0101 44.7471 43.3064 45.3582L46.3991 48.4508H42.3248C41.5655 48.4508 40.9359 49.0804 40.9359 49.8397C40.9359 50.599 41.5655 51.2287 42.3248 51.2287H49.7326C49.9178 51.2472 50.0845 51.2102 50.2697 51.1361Z" fill="#1E3362"/>
<path d="M35.5002 31.64L33.5002 30.94V26.5H33.6602C34.6802 26.5 35.5002 27.4 35.5002 28.5C35.5002 29.32 36.1802 30 37.0002 30C37.8202 30 38.5002 29.32 38.5002 28.5C38.5002 25.74 36.3402 23.5 33.6602 23.5H33.5002V23C33.5002 22.18 32.8202 21.5 32.0002 21.5C31.1802 21.5 30.5002 22.18 30.5002 23V23.5H29.9002C27.4803 23.5 25.5002 25.54 25.5002 28.06C25.5002 30.98 27.2002 31.92 28.5002 32.38L30.5002 33.08V37.52H30.3402C29.3202 37.52 28.5002 36.62 28.5002 35.52C28.5002 34.7 27.8202 34.02 27.0002 34.02C26.1802 34.02 25.5002 34.7 25.5002 35.52C25.5002 38.28 27.6603 40.52 30.3402 40.52H30.5002V41.02C30.5002 41.84 31.1802 42.52 32.0002 42.52C32.8202 42.52 33.5002 41.84 33.5002 41.02V40.52H34.1002C36.5202 40.52 38.5002 38.48 38.5002 35.96C38.5002 33.02 36.8002 32.08 35.5002 31.64ZM29.4802 29.52C28.8002 29.28 28.5002 29.14 28.5002 28.04C28.5002 27.18 29.1402 26.48 29.9002 26.48H30.5002V29.86L29.4802 29.52ZM34.1002 37.5H33.5002V34.12L34.5202 34.48C35.2002 34.72 35.5002 34.86 35.5002 35.96C35.5002 36.8 34.8602 37.5 34.1002 37.5Z" fill="#1E3362"/>
</svg>
