<svg width="64" height="64" viewBox="0 0 64 64" fill="none" xmlns="http://www.w3.org/2000/svg">
<rect width="64" height="64" rx="16" fill="white"/>
<path d="M41.4849 47.766C39.9464 47.766 38.5478 46.7869 37.9884 45.2485C37.9884 45.1086 37.9884 44.9688 37.8485 44.9688H25.401C25.401 45.1086 25.401 45.2485 25.2611 45.2485C24.8415 46.7869 23.4429 47.766 21.9045 47.766C21.0653 47.766 20.5059 48.3254 20.5059 49.1646C20.5059 50.0037 21.0653 50.5632 21.9045 50.5632H41.4849C42.3241 50.5632 42.8835 50.0037 42.8835 49.1646C42.8835 48.3254 42.3241 47.766 41.4849 47.766Z" fill="#1E3362"/>
<path d="M34.4924 30.9828H37.2896C38.1287 30.9828 38.6882 30.4233 38.6882 29.5841C38.6882 28.745 38.1287 28.1855 37.2896 28.1855H34.4924C33.6532 28.1855 33.0938 28.745 33.0938 29.5841C33.0938 30.4233 33.6532 30.9828 34.4924 30.9828Z" fill="#DEE5F5"/>
<path d="M47.0793 12.8008H16.3101C13.9324 12.8008 12.1143 14.619 12.1143 16.9966V37.9756C12.1143 40.3533 13.9324 42.1714 16.3101 42.1714H25.9604H37.2891H47.0793C49.457 42.1714 51.2751 40.3533 51.2751 37.9756V16.9966C51.2751 14.619 49.457 12.8008 47.0793 12.8008ZM42.8835 32.3812C42.8835 33.9197 41.6248 35.1784 40.0863 35.1784H23.3031C21.7646 35.1784 20.5059 33.9197 20.5059 32.3812V26.7868H42.8835V32.3812ZM42.8835 23.9896H20.5059V22.591C20.5059 21.0525 21.7646 19.7938 23.3031 19.7938H40.0863C41.6248 19.7938 42.8835 21.0525 42.8835 22.591V23.9896Z" fill="#DEE5F5"/>
<path d="M40.0863 35.1784C41.6248 35.1784 42.8835 33.9197 42.8835 32.3812V26.7868H20.5059V32.3812C20.5059 33.9197 21.7646 35.1784 23.3031 35.1784H40.0863Z" fill="#22386D"/>
<path d="M20.5059 23.9896H42.8835V22.591C42.8835 21.0525 41.6248 19.7938 40.0863 19.7938H23.3031C21.7646 19.7938 20.5059 21.0525 20.5059 22.591V23.9896Z" fill="#22386D"/>
</svg>
