<svg width="64" height="64" viewBox="0 0 64 64" fill="none" xmlns="http://www.w3.org/2000/svg">
<rect width="64" height="64" rx="16" fill="white"/>
<path d="M32.0285 50.9013C42.4494 50.9013 50.8971 42.4535 50.8971 32.0327C50.8971 21.6118 42.4494 13.1641 32.0285 13.1641C21.6077 13.1641 13.1599 21.6118 13.1599 32.0327C13.1599 42.4535 21.6077 50.9013 32.0285 50.9013Z" fill="#DEE5F5"/>
<path d="M38.1606 31.3762C38.244 31.1789 38.2756 30.9636 38.2525 30.7507C38.2294 30.5378 38.1523 30.3343 38.0285 30.1596C37.9048 29.9848 37.7385 29.8445 37.5453 29.752C37.3522 29.6595 37.1386 29.6178 36.9249 29.6309C35.4403 29.7111 30.3993 30.1669 28.8389 31.2718C27.8859 31.9466 27.24 32.9722 27.0433 34.1232C26.8466 35.2742 27.1151 36.4562 27.7899 37.4091C28.4646 38.3621 29.4903 39.008 30.6413 39.2047C31.7922 39.4014 32.9742 39.1329 33.9272 38.4581C35.4466 37.3823 37.5714 32.7644 38.1606 31.3762Z" fill="#1E3362"/>
<path d="M32.0285 13.1016C27.0243 13.1016 22.225 15.0895 18.6864 18.6281C15.1478 22.1666 13.1599 26.9659 13.1599 31.9702C13.1599 32.6951 13.7586 33.2281 14.4836 33.2281H17.768C20.0315 33.2281 21.7339 31.1783 22.4045 29.0165C22.8268 27.6551 23.5335 26.3989 24.4778 25.3312C25.422 24.2635 26.5824 23.4085 27.8819 22.823C29.1815 22.2374 30.5906 21.9346 32.0159 21.9346C33.4413 21.9346 34.8504 22.2374 36.15 22.823C37.4495 23.4085 38.6099 24.2635 39.5541 25.3312C40.4984 26.3989 41.2051 27.6551 41.6274 29.0165C42.298 31.1783 44.0004 33.2281 46.2639 33.2281H49.5493C50.2451 33.2281 50.872 32.6659 50.872 31.9702C50.872 26.9703 48.8875 22.1748 45.3544 18.6369C41.8213 15.0991 37.0284 13.1082 32.0285 13.1016Z" fill="#1E3362"/>
<path d="M32.0287 13.1641C31.601 13.1641 31.1859 13.1641 30.7708 13.227V22.0323C31.6053 21.9149 32.4521 21.9149 33.2866 22.0323V13.227C32.8715 13.1641 32.4563 13.1641 32.0287 13.1641Z" fill="#DEE5F5"/>
<path d="M16.7324 21.0279L23.11 27.4055C23.5056 26.6494 23.9914 25.944 24.5566 25.3048L18.3425 19.0781C17.7648 19.693 17.227 20.3443 16.7324 21.0279Z" fill="#DEE5F5"/>
<path d="M45.7146 19.0781L39.5005 25.3677C40.0657 26.0069 40.5515 26.7123 40.9471 27.4684L47.3247 21.0908C46.8323 20.3856 46.2945 19.7133 45.7146 19.0781Z" fill="#DEE5F5"/>
</svg>
