<svg width="192" height="88" viewBox="0 0 192 88" fill="none" xmlns="http://www.w3.org/2000/svg">
<g filter="url(#filter0_d_709_2733)">
<path d="M68.4144 0L1.1665 63.4877L23.8112 84.9333L69.3293 42.042L115.305 84.9333L137.95 63.4877L68.4144 0Z" fill="url(#paint0_linear_709_2733)"/>
<path d="M68.4144 0L1.1665 63.4877L23.8112 84.9333L69.3293 42.042L115.305 84.9333L137.95 63.4877L68.4144 0Z" fill="white" fill-opacity="0.2"/>
<path d="M167.855 84.9333L99.0062 20.8087L121.651 0L190.5 63.4877L167.855 84.9333Z" fill="url(#paint1_linear_709_2733)"/>
<path d="M167.855 84.9333L99.0062 20.8087L121.651 0L190.5 63.4877L167.855 84.9333Z" fill="white" fill-opacity="0.2"/>
</g>
<defs>
<filter id="filter0_d_709_2733" x="0.166504" y="0" width="191.333" height="87.9336" filterUnits="userSpaceOnUse" color-interpolation-filters="sRGB">
<feFlood flood-opacity="0" result="BackgroundImageFix"/>
<feColorMatrix in="SourceAlpha" type="matrix" values="0 0 0 0 0 0 0 0 0 0 0 0 0 0 0 0 0 0 127 0" result="hardAlpha"/>
<feOffset dy="2"/>
<feGaussianBlur stdDeviation="0.5"/>
<feComposite in2="hardAlpha" operator="out"/>
<feColorMatrix type="matrix" values="0 0 0 0 0 0 0 0 0 0 0 0 0 0 0 0 0 0 0.75 0"/>
<feBlend mode="normal" in2="BackgroundImageFix" result="effect1_dropShadow_709_2733"/>
<feBlend mode="normal" in="SourceGraphic" in2="effect1_dropShadow_709_2733" result="shape"/>
</filter>
<linearGradient id="paint0_linear_709_2733" x1="94.8332" y1="0" x2="94.8332" y2="84.9333" gradientUnits="userSpaceOnUse">
<stop stop-color="#6F6F6F"/>
<stop offset="0.243291" stop-color="#A7A8A9"/>
<stop offset="0.430657" stop-color="#BABCBF"/>
<stop offset="0.492701" stop-color="#C9CACC"/>
<stop offset="0.671533" stop-color="#E0E0E0"/>
<stop offset="0.711679" stop-color="#DBDCDE"/>
<stop offset="0.895833" stop-color="#A7A8A9"/>
<stop offset="0.990736" stop-color="#6F6F6F"/>
</linearGradient>
<linearGradient id="paint1_linear_709_2733" x1="94.8332" y1="0" x2="94.8332" y2="84.9333" gradientUnits="userSpaceOnUse">
<stop stop-color="#6F6F6F"/>
<stop offset="0.243291" stop-color="#A7A8A9"/>
<stop offset="0.430657" stop-color="#BABCBF"/>
<stop offset="0.492701" stop-color="#C9CACC"/>
<stop offset="0.671533" stop-color="#E0E0E0"/>
<stop offset="0.711679" stop-color="#DBDCDE"/>
<stop offset="0.895833" stop-color="#A7A8A9"/>
<stop offset="0.990736" stop-color="#6F6F6F"/>
</linearGradient>
</defs>
</svg>
