<svg width="46" height="46" viewBox="0 0 46 46" fill="none" xmlns="http://www.w3.org/2000/svg">
<path fill-rule="evenodd" clip-rule="evenodd" d="M6.42503 15.7139C4.05837 15.7139 2.25416 17.9233 2.65448 20.2364L5.96721 39.3767C6.3727 41.7195 8.44438 43.4011 10.7927 43.4011H35.2046C37.5554 43.4011 39.5912 41.7092 40.0244 39.3966C40.0254 39.3899 40.0264 39.3833 40.0273 39.3766L43.3372 20.2562V20.2534C43.7717 17.9239 41.9403 15.7137 39.5723 15.7137L6.42503 15.7139ZM6.42503 18.6283H39.5723C40.1777 18.6283 40.5881 19.1228 40.4766 19.7184C40.4756 19.725 40.4746 19.7317 40.4737 19.7383L37.161 38.8673C36.98 39.8161 36.1705 40.4867 35.2046 40.4867H10.7927C9.82221 40.4867 8.99737 39.8118 8.83636 38.8815L5.52363 19.7383C5.41627 19.118 5.81729 18.6283 6.42503 18.6283Z" fill="#45B6F2"/>
<path fill-rule="evenodd" clip-rule="evenodd" d="M6.42503 15.4509L39.5723 15.4508C42.0968 15.4508 44.0473 17.7952 43.5999 20.2773V20.2789L40.2869 39.4169C40.2861 39.4231 40.2852 39.4292 40.2843 39.4354L40.2836 39.4403L40.2827 39.445C39.8262 41.8819 37.6818 43.6641 35.2046 43.6641H10.7927C8.32069 43.6641 6.13634 41.8945 5.70835 39.4216L2.39561 20.2813C1.96817 17.8114 3.89126 15.4509 6.42503 15.4509ZM39.5723 15.9767L6.42503 15.9768C4.22548 15.9768 2.54015 18.0351 2.91334 20.1915L6.22608 39.3318C6.60905 41.5446 8.56807 43.1381 10.7927 43.1381H35.2046C37.4272 43.1381 39.3534 41.5388 39.7653 39.3531C39.7655 39.3517 39.7657 39.3504 39.7659 39.349C39.7662 39.3465 39.7666 39.3439 39.7669 39.3414L39.7676 39.3365L43.0745 20.2336V20.229L43.0789 20.2051C43.4833 18.0371 41.7757 15.9767 39.5723 15.9767ZM5.90983 19.1168C5.79985 19.2519 5.74044 19.4505 5.78249 19.6935L9.09523 38.8366C9.23338 39.6349 9.94384 40.2237 10.7927 40.2237H35.2046C36.0437 40.2237 36.7444 39.6439 36.9025 38.8201C36.9027 38.8194 36.9028 38.8187 36.9029 38.818L40.2141 19.6981C40.2149 19.6919 40.2158 19.6857 40.2167 19.6795L40.2174 19.6747L40.2183 19.6699C40.2996 19.2363 40.0133 18.8913 39.5723 18.8913H6.42503C6.1945 18.8913 6.01928 18.9824 5.90983 19.1168ZM5.5025 18.7846C5.71865 18.5191 6.04781 18.3653 6.42503 18.3653H39.5723C40.3402 18.3653 40.8742 19.0063 40.7358 19.7615C40.7352 19.7655 40.7346 19.7695 40.7341 19.7736L40.7334 19.7784L37.4195 38.9144L37.419 38.9166C37.2144 39.9894 36.2966 40.7497 35.2046 40.7497H10.7927C9.70058 40.7497 8.76135 39.9887 8.5775 38.9264L5.26476 19.7832C5.19945 19.4058 5.28688 19.0494 5.5025 18.7846Z" fill="#45B6F2"/>
<path fill-rule="evenodd" clip-rule="evenodd" d="M16.1443 2.69562C15.9653 2.76405 15.8016 2.86716 15.6626 2.99903C15.5235 3.13089 15.4118 3.28892 15.3339 3.46408L9.51028 16.5791C9.43256 16.754 9.39002 16.9425 9.38512 17.1339C9.38021 17.3252 9.41302 17.5157 9.48168 17.6944C9.55034 17.8731 9.65349 18.0364 9.78526 18.1752C9.91702 18.3139 10.0748 18.4254 10.2496 18.5031C10.4244 18.5809 10.6127 18.6234 10.8039 18.6283C10.9951 18.6333 11.1854 18.6004 11.3639 18.5317C11.5424 18.463 11.7056 18.3597 11.8443 18.2278C11.9829 18.096 12.0942 17.938 12.1718 17.7631L17.9954 4.64807C18.0732 4.47316 18.1157 4.28464 18.1206 4.09328C18.1255 3.90191 18.0927 3.71144 18.024 3.53276C17.9554 3.35409 17.8522 3.1907 17.7205 3.05195C17.5887 2.91319 17.4309 2.80178 17.2561 2.72408C16.9039 2.56772 16.5041 2.55745 16.1443 2.69562Z" fill="#45B6F2"/>
<path fill-rule="evenodd" clip-rule="evenodd" d="M16.0504 2.45002C16.475 2.28698 16.9469 2.29913 17.3626 2.48368C17.569 2.5754 17.7553 2.70697 17.9109 2.87076C18.0664 3.03456 18.1882 3.22744 18.2692 3.43835C18.3503 3.64926 18.389 3.8741 18.3832 4.1C18.3774 4.32588 18.3272 4.54839 18.2355 4.75485M18.2355 4.75485L12.4119 17.8698C12.3203 18.0763 12.1889 18.2628 12.0253 18.4184C11.8616 18.5741 11.6689 18.696 11.4582 18.7771C11.2475 18.8583 11.0229 18.897 10.7972 18.8912C10.5715 18.8854 10.3492 18.8352 10.143 18.7434C9.93662 18.6517 9.75036 18.5201 9.59483 18.3563C9.4393 18.1926 9.31753 17.9997 9.23647 17.7888C9.15543 17.5779 9.11669 17.353 9.12248 17.1271C9.12828 16.9012 9.17847 16.6787 9.27021 16.4723L15.0939 3.35708C15.1859 3.15032 15.3177 2.96377 15.4819 2.80811C15.646 2.65249 15.8392 2.5308 16.0504 2.45002M17.1496 2.96444C16.8609 2.83628 16.5332 2.82787 16.2384 2.9411C16.0918 2.99718 15.9572 3.08182 15.8433 3.1899C15.7293 3.29797 15.6377 3.42749 15.5739 3.57103L9.75035 16.6859C9.68665 16.8292 9.65177 16.9838 9.64775 17.1406C9.64373 17.2975 9.67062 17.4536 9.72689 17.6C9.78315 17.7464 9.86769 17.8803 9.97568 17.994C10.0837 18.1077 10.213 18.1991 10.3562 18.2627C10.4995 18.3265 10.654 18.3614 10.8106 18.3655C10.9674 18.3695 11.1233 18.3426 11.2696 18.2863C11.4159 18.23 11.5497 18.1453 11.6633 18.0372C11.7769 17.9291 11.8681 17.7997 11.9317 17.6563L17.7554 4.54125C17.8191 4.3979 17.8539 4.24334 17.858 4.08651C17.862 3.92967 17.8351 3.77357 17.7788 3.62714C17.7226 3.4807 17.638 3.34679 17.53 3.23308C17.4221 3.1194 17.2928 3.02811 17.1496 2.96444Z" fill="#45B6F2"/>
<path fill-rule="evenodd" clip-rule="evenodd" d="M29.8531 2.69561C29.4933 2.55744 29.0935 2.56766 28.7412 2.72403C28.5664 2.80173 28.4086 2.91314 28.2769 3.05189C28.1451 3.19065 28.042 3.35404 27.9733 3.53271C27.9046 3.71139 27.8718 3.90186 27.8767 4.09323C27.8816 4.28459 27.9242 4.47311 28.0019 4.64802L33.8255 17.763C33.9823 18.1157 34.2724 18.3916 34.6323 18.5303C34.9921 18.6691 35.3923 18.6593 35.7449 18.503C35.9197 18.4253 36.0775 18.3139 36.2092 18.1752C36.341 18.0364 36.4442 17.873 36.5128 17.6944C36.5815 17.5157 36.6143 17.3252 36.6094 17.1339C36.6045 16.9425 36.5619 16.754 36.4842 16.579L30.6606 3.46403C30.5039 3.11083 30.2134 2.83444 29.8531 2.69561Z" fill="#45B6F2"/>
<path fill-rule="evenodd" clip-rule="evenodd" d="M28.6347 2.48365C29.0505 2.29907 29.5225 2.28701 29.9472 2.45011C30.3725 2.61398 30.7157 2.94031 30.9007 3.35723M30.9007 3.35723L36.7243 16.4722C36.816 16.6786 36.8662 16.9012 36.872 17.1271C36.8778 17.353 36.8391 17.5779 36.758 17.7888C36.677 17.9997 36.5552 18.1925 36.3997 18.3563C36.2441 18.5201 36.0579 18.6516 35.8515 18.7434C35.4353 18.9278 34.9626 18.9395 34.5379 18.7757C34.1131 18.612 33.7706 18.2862 33.5855 17.87L27.7619 4.75489C27.6701 4.54843 27.6199 4.32585 27.6141 4.09997C27.6083 3.87407 27.647 3.64923 27.7281 3.43832C27.8091 3.22741 27.9309 3.03453 28.0865 2.87073C28.242 2.70694 28.4284 2.57537 28.6347 2.48365M28.8478 2.96437C28.7046 3.02805 28.5753 3.11935 28.4673 3.23305C28.3593 3.34677 28.2748 3.48067 28.2185 3.62711C28.1622 3.77354 28.1353 3.92964 28.1394 4.08648C28.1434 4.24331 28.1782 4.39781 28.2419 4.54116L34.0655 17.6561C34.194 17.945 34.4319 18.1713 34.7267 18.285C35.0216 18.3987 35.3496 18.3906 35.6386 18.2626C35.7817 18.1989 35.9109 18.1076 36.0188 17.994C36.1268 17.8803 36.2113 17.7464 36.2676 17.6C36.3239 17.4536 36.3508 17.2975 36.3467 17.1406C36.3427 16.9838 36.3079 16.8293 36.2442 16.6859L30.4205 3.57083C30.2921 3.28141 30.0541 3.05487 29.7588 2.94107C29.464 2.8279 29.1364 2.83628 28.8478 2.96437Z" fill="#45B6F2"/>
</svg>
