<svg width="26" height="26" viewBox="0 0 26 26" fill="currentColor" xmlns="http://www.w3.org/2000/svg">
<path fill-rule="evenodd" clip-rule="evenodd" d="M3.63154 8.88174C2.29386 8.88174 1.27409 10.1305 1.50036 11.4379L3.37277 22.2564C3.60196 23.5806 4.77291 24.5311 6.10023 24.5311H19.8983C21.2269 24.5311 22.3777 23.5747 22.6225 22.2676C22.6231 22.2639 22.6236 22.2601 22.6241 22.2563L24.4949 11.4492V11.4475C24.7405 10.1309 23.7054 8.88168 22.367 8.88168L3.63154 8.88174ZM3.63154 10.529H22.367C22.7091 10.529 22.9411 10.8085 22.8781 11.1452C22.8775 11.1489 22.877 11.1527 22.8765 11.1565L21.004 21.9684C20.9018 22.5048 20.4442 22.8838 19.8983 22.8838H6.10024C5.55168 22.8838 5.08547 22.5023 4.99447 21.9765L3.12205 11.1565C3.06137 10.8058 3.28803 10.529 3.63154 10.529Z" fill="#1B2E59"/>
<path fill-rule="evenodd" clip-rule="evenodd" d="M3.63154 8.73311L22.367 8.73305C23.7938 8.73305 24.8963 10.0582 24.6434 11.4611V11.462L22.7709 22.2791C22.7704 22.2826 22.7699 22.2861 22.7694 22.2896L22.769 22.2923L22.7685 22.295C22.5104 23.6724 21.2984 24.6797 19.8983 24.6797H6.10023C4.703 24.6797 3.46837 23.6795 3.22646 22.2817L1.35404 11.4633C1.11245 10.0673 2.19941 8.73311 3.63154 8.73311ZM22.367 9.03031L3.63154 9.03037C2.38832 9.03037 1.43573 10.1938 1.64667 11.4126L3.51909 22.231C3.73555 23.4817 4.84282 24.3824 6.10023 24.3824H19.8983C21.1545 24.3824 22.2432 23.4785 22.476 22.2431C22.4761 22.2423 22.4763 22.2415 22.4764 22.2407C22.4766 22.2393 22.4768 22.2379 22.477 22.2364L22.4773 22.2337L24.3464 11.4364V11.4338L24.3489 11.4203C24.5775 10.1949 23.6123 9.03031 22.367 9.03031ZM3.34034 10.8052C3.27817 10.8815 3.2446 10.9938 3.26836 11.1311L5.14078 21.9511C5.21887 22.4023 5.62043 22.7352 6.10024 22.7352H19.8983C20.3725 22.7352 20.7686 22.4074 20.8579 21.9418C20.858 21.9414 20.8581 21.941 20.8582 21.9406L22.7297 11.1337C22.7302 11.1302 22.7307 11.1267 22.7312 11.1232L22.7316 11.1205L22.7321 11.1178C22.778 10.8727 22.6162 10.6777 22.367 10.6777H3.63154C3.50124 10.6777 3.4022 10.7292 3.34034 10.8052ZM3.11011 10.6174C3.23228 10.4673 3.41833 10.3804 3.63154 10.3804H22.367C22.801 10.3804 23.1028 10.7427 23.0246 11.1695C23.0242 11.1718 23.0239 11.1741 23.0236 11.1764L23.0232 11.1791L21.1501 21.9951L21.1499 21.9963C21.0343 22.6027 20.5155 23.0324 19.8983 23.0324H6.10024C5.48293 23.0324 4.95207 22.6023 4.84815 22.0019L2.97574 11.1818C2.93882 10.9685 2.98823 10.7671 3.11011 10.6174Z" fill="#1B2E59"/>
<path fill-rule="evenodd" clip-rule="evenodd" d="M9.12503 1.52361C9.02389 1.56229 8.93136 1.62057 8.85276 1.6951C8.77416 1.76963 8.71102 1.85896 8.66697 1.95796L5.37538 9.37078C5.33144 9.46964 5.3074 9.5762 5.30463 9.68436C5.30186 9.79253 5.3204 9.9002 5.35921 10.0012C5.39802 10.1022 5.45632 10.1945 5.5308 10.2729C5.60527 10.3514 5.69446 10.4143 5.79325 10.4583C5.89203 10.5022 5.99849 10.5263 6.10656 10.5291C6.21462 10.5318 6.32218 10.5133 6.42307 10.4744C6.52397 10.4356 6.61623 10.3772 6.69459 10.3027C6.77295 10.2281 6.83586 10.1389 6.87974 10.04L10.1713 2.62717C10.2153 2.52831 10.2393 2.42176 10.2421 2.31359C10.2449 2.20543 10.2263 2.09777 10.1875 1.99678C10.1487 1.89579 10.0904 1.80344 10.0159 1.72501C9.94144 1.64659 9.85225 1.58362 9.75346 1.5397C9.55436 1.45132 9.32838 1.44552 9.12503 1.52361Z" fill="#1B2E59"/>
<path fill-rule="evenodd" clip-rule="evenodd" d="M9.07194 1.3848C9.31196 1.29264 9.57868 1.29951 9.81366 1.40382C9.93028 1.45566 10.0356 1.53002 10.1235 1.6226C10.2115 1.71519 10.2803 1.8242 10.3261 1.94341C10.3719 2.06262 10.3938 2.18971 10.3905 2.31739C10.3872 2.44506 10.3589 2.57083 10.307 2.68752M10.307 2.68752L7.01545 10.1003C6.96365 10.217 6.88938 10.3224 6.79689 10.4104C6.7044 10.4984 6.59549 10.5673 6.47638 10.6132C6.35727 10.659 6.23031 10.6809 6.10275 10.6776C5.97521 10.6744 5.84956 10.646 5.73298 10.5941C5.61635 10.5422 5.51107 10.4679 5.42317 10.3753C5.33526 10.2827 5.26643 10.1738 5.22062 10.0545C5.17481 9.93532 5.15291 9.80823 5.15619 9.68055C5.15946 9.55288 5.18783 9.42711 5.23968 9.31042L8.53132 1.89748C8.58332 1.78061 8.65785 1.67517 8.75063 1.58719C8.84339 1.49924 8.95257 1.43045 9.07194 1.3848M9.69325 1.67555C9.53007 1.60311 9.34487 1.59836 9.17823 1.66236L9.17802 1.66244C9.09513 1.69414 9.0193 1.7419 8.95488 1.80299C8.89046 1.86407 8.83872 1.93727 8.80262 2.01841L5.51107 9.43114C5.47507 9.51217 5.45535 9.59953 5.45307 9.68817C5.4508 9.77682 5.466 9.86507 5.49781 9.94783C5.52961 10.0306 5.57739 10.1063 5.63843 10.1705C5.69947 10.2348 5.77256 10.2864 5.85353 10.3224C5.93447 10.3585 6.0218 10.3782 6.11037 10.3805C6.19894 10.3828 6.28709 10.3675 6.36977 10.3357C6.45245 10.3039 6.52807 10.2561 6.59229 10.195C6.65651 10.1339 6.70807 10.0607 6.74403 9.97967L10.0356 2.5668C10.0716 2.48577 10.0914 2.39841 10.0936 2.30976C10.0959 2.22112 10.0807 2.13289 10.0489 2.05012C10.0171 1.96735 9.96931 1.89167 9.90828 1.82739C9.84726 1.76314 9.7742 1.71154 9.69325 1.67555Z" fill="#1B2E59"/>
<path fill-rule="evenodd" clip-rule="evenodd" d="M16.8735 1.52361C16.6701 1.44551 16.4441 1.45129 16.245 1.53967C16.1462 1.58359 16.0571 1.64656 15.9826 1.72498C15.9081 1.80341 15.8498 1.89576 15.811 1.99675C15.7722 2.09774 15.7536 2.2054 15.7564 2.31356C15.7592 2.42173 15.7832 2.52828 15.8272 2.62714L19.1188 10.04C19.2074 10.2393 19.3714 10.3953 19.5748 10.4737C19.7782 10.5521 20.0043 10.5465 20.2036 10.4582C20.3024 10.4143 20.3916 10.3513 20.4661 10.2729C20.5406 10.1945 20.5989 10.1022 20.6377 10.0012C20.6765 9.90018 20.695 9.79252 20.6923 9.68436C20.6895 9.57619 20.6654 9.46963 20.6215 9.37076L17.3299 1.95793C17.2413 1.75829 17.0771 1.60208 16.8735 1.52361Z" fill="#1B2E59"/>
<path fill-rule="evenodd" clip-rule="evenodd" d="M16.1848 1.4038C16.4199 1.29947 16.6866 1.29266 16.9267 1.38484L16.9268 1.3849C17.1672 1.47752 17.361 1.66191 17.4656 1.89757M17.4656 1.89757L20.7572 9.31036C20.809 9.42706 20.8374 9.55287 20.8407 9.68054C20.844 9.80823 20.8221 9.93531 20.7763 10.0545C20.7305 10.1737 20.6616 10.2827 20.5737 10.3753C20.4858 10.4679 20.3805 10.5422 20.2639 10.5941L20.2637 10.5941C20.0285 10.6984 19.7615 10.7049 19.5214 10.6124C19.2813 10.5198 19.0877 10.3357 18.9831 10.1004L15.6915 2.68754C15.6396 2.57085 15.6112 2.44505 15.608 2.31738C15.6047 2.18969 15.6266 2.06261 15.6724 1.9434C15.7182 1.82419 15.787 1.71517 15.875 1.62259C15.9629 1.53001 16.0682 1.45565 16.1848 1.4038M16.3053 1.67551C16.2243 1.7115 16.1512 1.76311 16.0902 1.82738C16.0292 1.89165 15.9814 1.96734 15.9496 2.05011C15.9178 2.13287 15.9026 2.2211 15.9049 2.30975C15.9071 2.39839 15.9268 2.48572 15.9628 2.56674L19.2544 9.97954C19.3271 10.1429 19.4615 10.2707 19.6281 10.335C19.7948 10.3992 19.9802 10.3947 20.1435 10.3223C20.2244 10.2863 20.2975 10.2348 20.3585 10.1705C20.4195 10.1062 20.4673 10.0306 20.4991 9.94781C20.5309 9.86505 20.5461 9.77682 20.5438 9.68817C20.5415 9.59952 20.5218 9.51219 20.4858 9.43116L17.1942 2.01829C17.1216 1.85471 16.9871 1.72667 16.8202 1.66234C16.6536 1.59838 16.4684 1.60312 16.3053 1.67551Z" fill="#1B2E59"/>
<path fill-rule="evenodd" clip-rule="evenodd" d="M12.9888 12.1763C12.7706 12.1763 12.5612 12.2631 12.4069 12.4176C12.2526 12.5721 12.1659 12.7815 12.1659 13V19.5892C12.1659 19.8076 12.2526 20.0171 12.4069 20.1716C12.5612 20.326 12.7706 20.4128 12.9888 20.4128C13.207 20.4128 13.4164 20.326 13.5707 20.1716C13.725 20.0171 13.8117 19.8076 13.8117 19.5892V13C13.8117 12.7815 13.725 12.5721 13.5707 12.4176C13.4164 12.2631 13.207 12.1763 12.9888 12.1763Z" fill="#1B2E59"/>
<path fill-rule="evenodd" clip-rule="evenodd" d="M12.3019 12.3125C12.4841 12.1302 12.7312 12.0277 12.9888 12.0277C13.2464 12.0277 13.4935 12.1302 13.6757 12.3125C13.8578 12.4948 13.9602 12.7421 13.9602 13V19.5892C13.9602 19.847 13.8578 20.0943 13.6757 20.2767C13.4935 20.459 13.2464 20.5614 12.9888 20.5614C12.7312 20.5614 12.4841 20.459 12.3019 20.2767C12.1198 20.0943 12.0174 19.847 12.0174 19.5892V13C12.0174 12.7421 12.1198 12.4948 12.3019 12.3125ZM12.9888 12.325C12.8099 12.325 12.6384 12.3961 12.5119 12.5227C12.3854 12.6493 12.3144 12.821 12.3144 13V19.5892C12.3144 19.7682 12.3854 19.9399 12.5119 20.0665C12.6384 20.1931 12.8099 20.2642 12.9888 20.2642C13.1677 20.2642 13.3392 20.1931 13.4657 20.0665C13.5922 19.9399 13.6632 19.7682 13.6632 19.5892V13C13.6632 12.821 13.5922 12.6493 13.4657 12.5227C13.3392 12.3961 13.1677 12.325 12.9888 12.325Z" fill="#1B2E59"/>
<path fill-rule="evenodd" clip-rule="evenodd" d="M9.6972 12.1763C9.47896 12.1763 9.26965 12.2631 9.11532 12.4176C8.961 12.5721 8.8743 12.7815 8.8743 13V19.5892C8.8743 19.8076 8.961 20.0171 9.11532 20.1716C9.26965 20.326 9.47896 20.4128 9.6972 20.4128C9.91545 20.4128 10.1248 20.326 10.2791 20.1716C10.4334 20.0171 10.5201 19.8076 10.5201 19.5892V13C10.5201 12.7815 10.4334 12.5721 10.2791 12.4176C10.1248 12.2631 9.91545 12.1763 9.6972 12.1763Z" fill="#1B2E59"/>
<path fill-rule="evenodd" clip-rule="evenodd" d="M9.01032 12.3125C9.19249 12.1302 9.43957 12.0277 9.6972 12.0277C9.95484 12.0277 10.2019 12.1302 10.3841 12.3125C10.5663 12.4948 10.6686 12.7421 10.6686 13V19.5892C10.6686 19.847 10.5663 20.0943 10.3841 20.2767C10.2019 20.459 9.95484 20.5614 9.6972 20.5614C9.43957 20.5614 9.19249 20.459 9.01032 20.2767C8.82815 20.0943 8.72581 19.847 8.72581 19.5892V13C8.72581 12.7421 8.82815 12.4948 9.01032 12.3125ZM9.6972 12.325C9.51834 12.325 9.3468 12.3961 9.22033 12.5227C9.09385 12.6493 9.0228 12.821 9.0228 13V19.5892C9.0228 19.7682 9.09385 19.9399 9.22033 20.0665C9.3468 20.1931 9.51834 20.2642 9.6972 20.2642C9.87606 20.2642 10.0476 20.1931 10.1741 20.0665C10.3006 19.9399 10.3716 19.7682 10.3716 19.5892V13C10.3716 12.821 10.3006 12.6493 10.1741 12.5227C10.0476 12.3961 9.87606 12.325 9.6972 12.325Z" fill="#1B2E59"/>
<path fill-rule="evenodd" clip-rule="evenodd" d="M16.2804 12.1763C16.0621 12.1763 15.8528 12.2631 15.6985 12.4176C15.5442 12.5721 15.4575 12.7815 15.4575 13V19.5892C15.4575 19.8076 15.5442 20.0171 15.6985 20.1716C15.8528 20.326 16.0621 20.4128 16.2804 20.4128C16.4986 20.4128 16.7079 20.326 16.8623 20.1716C17.0166 20.0171 17.1033 19.8076 17.1033 19.5892V13C17.1033 12.7815 17.0166 12.5721 16.8623 12.4176C16.7079 12.2631 16.4986 12.1763 16.2804 12.1763Z" fill="#1B2E59"/>
<path fill-rule="evenodd" clip-rule="evenodd" d="M15.5935 12.3125C15.7757 12.1302 16.0228 12.0277 16.2804 12.0277C16.538 12.0277 16.7851 12.1302 16.9673 12.3125C17.1494 12.4948 17.2518 12.7421 17.2518 13V19.5892C17.2518 19.847 17.1494 20.0943 16.9673 20.2767C16.7851 20.459 16.538 20.5614 16.2804 20.5614C16.0228 20.5614 15.7757 20.459 15.5935 20.2767C15.4113 20.0943 15.309 19.847 15.309 19.5892V13C15.309 12.7421 15.4113 12.4948 15.5935 12.3125ZM16.2804 12.325C16.1015 12.325 15.93 12.3961 15.8035 12.5227C15.677 12.6493 15.606 12.821 15.606 13V19.5892C15.606 19.7682 15.677 19.9399 15.8035 20.0665C15.93 20.1931 16.1015 20.2642 16.2804 20.2642C16.4593 20.2642 16.6308 20.1931 16.7573 20.0665C16.8837 19.9399 16.9548 19.7682 16.9548 19.5892V13C16.9548 12.821 16.8837 12.6493 16.7573 12.5227C16.6308 12.3961 16.4593 12.325 16.2804 12.325Z" fill="#1B2E59"/>
</svg>
