<svg width="20" height="21" viewBox="0 0 20 21" fill="none" xmlns="http://www.w3.org/2000/svg">
<path fill-rule="evenodd" clip-rule="evenodd" d="M7.99824 2.77313C7.28577 2.77313 6.70821 3.35041 6.70821 4.06252V5.35191H13.2672V4.06252C13.2672 3.3504 12.6896 2.77313 11.9771 2.77313H7.99824ZM14.666 5.35191V4.06252C14.666 2.57825 13.4622 1.375 11.9771 1.375H7.99824C6.51322 1.375 5.30937 2.57824 5.30937 4.06252V5.35191H3.02461C2.63833 5.35191 2.3252 5.66489 2.3252 6.05098C2.3252 6.43706 2.63833 6.75004 3.02461 6.75004H3.31992V16.9875C3.31992 18.4718 4.52378 19.675 6.00879 19.675H13.9666C15.4517 19.675 16.6555 18.4718 16.6555 16.9875V6.75004H16.9508C17.3371 6.75004 17.6502 6.43706 17.6502 6.05098C17.6502 5.66489 17.3371 5.35191 16.9508 5.35191H14.666ZM15.2566 6.75004H4.71876V16.9875C4.71876 17.6996 5.29632 18.2769 6.00879 18.2769H13.9666C14.6791 18.2769 15.2566 17.6996 15.2566 16.9875V6.75004ZM7.99824 9.32882C8.38452 9.32882 8.69766 9.6418 8.69766 10.0279V14.999C8.69766 15.3851 8.38452 15.6981 7.99824 15.6981C7.61197 15.6981 7.29883 15.3851 7.29883 14.999V10.0279C7.29883 9.6418 7.61197 9.32882 7.99824 9.32882ZM11.9771 9.32882C12.3634 9.32882 12.6766 9.6418 12.6766 10.0279V14.999C12.6766 15.3851 12.3634 15.6981 11.9771 15.6981C11.5909 15.6981 11.2777 15.3851 11.2777 14.999V10.0279C11.2777 9.6418 11.5909 9.32882 11.9771 9.32882Z" fill="currentColor"/>
</svg>
