<svg width="26" height="26" viewBox="0 0 26 26" fill="none" xmlns="http://www.w3.org/2000/svg">
<path d="M3.625 10.9193C3.625 6.9909 3.625 5.02672 4.84539 3.80632C6.06578 2.58594 8.02996 2.58594 11.9583 2.58594H14.0417C17.97 2.58594 19.9343 2.58594 21.1546 3.80632C22.375 5.02672 22.375 6.9909 22.375 10.9193V15.0859C22.375 19.0143 22.375 20.9785 21.1546 22.1989C19.9343 23.4193 17.97 23.4193 14.0417 23.4193H11.9583C8.02996 23.4193 6.06578 23.4193 4.84539 22.1989C3.625 20.9785 3.625 19.0143 3.625 15.0859V10.9193Z" fill="#8598C7"/>
<path d="M17.7072 17.688C17.8895 17.5458 18.0548 17.3805 18.3855 17.0498L22.5078 12.9275C22.6074 12.8279 22.5618 12.6562 22.4287 12.61C21.9421 12.4412 21.3091 12.1243 20.717 11.5322C20.1249 10.9401 19.8079 10.3071 19.6392 9.82049C19.5929 9.68734 19.4213 9.64172 19.3217 9.74138L15.1994 13.8636C14.8687 14.1944 14.7034 14.3597 14.5612 14.542C14.3935 14.7571 14.2496 14.9897 14.1323 15.2359C14.0328 15.4446 13.9589 15.6664 13.8111 16.1101L13.6199 16.6833L13.3161 17.5948L13.0312 18.4495C12.9585 18.6678 13.0152 18.9084 13.1779 19.0712C13.3407 19.2339 13.5814 19.2907 13.7997 19.218L14.6544 18.9331L15.5659 18.6293L16.1391 18.4381C16.5826 18.2903 16.8046 18.2163 17.0132 18.1169C17.2595 17.9996 17.4921 17.8557 17.7072 17.688Z" fill="white"/>
<path d="M23.7985 11.6351C24.6784 10.7552 24.6784 9.32877 23.7985 8.44894C22.9187 7.5691 21.4923 7.5691 20.6124 8.44894L20.4799 8.58147C20.352 8.70935 20.2941 8.88798 20.326 9.066C20.3461 9.17798 20.3833 9.3417 20.4511 9.53705C20.5867 9.92775 20.8426 10.4406 21.3248 10.9227C21.8069 11.4049 22.3198 11.6608 22.7104 11.7964C22.9058 11.8642 23.0695 11.9014 23.1814 11.9215C23.3595 11.9534 23.5381 11.8955 23.666 11.7676L23.7985 11.6351Z" fill="white"/>
<path fill-rule="evenodd" clip-rule="evenodd" d="M8.05225 9.875C8.05225 9.44353 8.40203 9.09375 8.8335 9.09375H15.6043C16.0358 9.09375 16.3856 9.44353 16.3856 9.875C16.3856 10.3065 16.0358 10.6562 15.6043 10.6562H8.8335C8.40203 10.6562 8.05225 10.3065 8.05225 9.875ZM8.05225 14.0417C8.05225 13.6102 8.40203 13.2604 8.8335 13.2604H11.9585C12.39 13.2604 12.7397 13.6102 12.7397 14.0417C12.7397 14.4731 12.39 14.8229 11.9585 14.8229H8.8335C8.40203 14.8229 8.05225 14.4731 8.05225 14.0417ZM8.05225 18.2083C8.05225 17.7769 8.40203 17.4271 8.8335 17.4271H10.396C10.8275 17.4271 11.1772 17.7769 11.1772 18.2083C11.1772 18.6398 10.8275 18.9896 10.396 18.9896H8.8335C8.40203 18.9896 8.05225 18.6398 8.05225 18.2083Z" fill="white"/>
</svg>
