<svg width="26" height="26" viewBox="0 0 26 26" fill="none" xmlns="http://www.w3.org/2000/svg">
<path d="M3.625 10.9154C3.625 6.98699 3.625 5.02281 4.84539 3.80242C6.06578 2.58203 8.02996 2.58203 11.9583 2.58203H14.0417C17.97 2.58203 19.9343 2.58203 21.1546 3.80242C22.375 5.02281 22.375 6.98699 22.375 10.9154V15.082C22.375 19.0104 22.375 20.9746 21.1546 22.1949C19.9343 23.4154 17.97 23.4154 14.0417 23.4154H11.9583C8.02996 23.4154 6.06578 23.4154 4.84539 22.1949C3.625 20.9746 3.625 19.0104 3.625 15.082V10.9154Z" fill="#8598C7"/>
<path fill-rule="evenodd" clip-rule="evenodd" d="M8.05225 9.875C8.05225 9.44353 8.40203 9.09375 8.8335 9.09375H15.6043C16.0358 9.09375 16.3856 9.44353 16.3856 9.875C16.3856 10.3065 16.0358 10.6562 15.6043 10.6562H8.8335C8.40203 10.6562 8.05225 10.3065 8.05225 9.875ZM8.05225 14.0417C8.05225 13.6102 8.40203 13.2604 8.8335 13.2604H11.9585C12.39 13.2604 12.7397 13.6102 12.7397 14.0417C12.7397 14.4731 12.39 14.8229 11.9585 14.8229H8.8335C8.40203 14.8229 8.05225 14.4731 8.05225 14.0417ZM8.05225 18.2083C8.05225 17.7769 8.40203 17.4271 8.8335 17.4271H10.396C10.8275 17.4271 11.1772 17.7769 11.1772 18.2083C11.1772 18.6398 10.8275 18.9896 10.396 18.9896H8.8335C8.40203 18.9896 8.05225 18.6398 8.05225 18.2083Z" fill="white"/>
<path fill-rule="evenodd" clip-rule="evenodd" d="M20.0312 21.5938C17.8215 21.5938 16.7167 21.5938 16.0302 20.9073C15.3437 20.2208 15.3438 19.1159 15.3438 16.9062C15.3438 14.6965 15.3437 13.5917 16.0302 12.9052C16.7167 12.2187 17.8215 12.2188 20.0312 12.2188C22.2409 12.2188 23.3458 12.2187 24.0323 12.9052C24.7188 13.5917 24.7188 14.6965 24.7188 16.9062C24.7188 19.1159 24.7188 20.2208 24.0323 20.9073C23.3458 21.5938 22.2409 21.5938 20.0312 21.5938ZM20.0312 19.6016C20.2254 19.6016 20.3828 19.4442 20.3828 19.25V16.4375C20.3828 16.2433 20.2254 16.0859 20.0312 16.0859C19.8371 16.0859 19.6797 16.2433 19.6797 16.4375V19.25C19.6797 19.4442 19.8371 19.6016 20.0312 19.6016ZM20.0312 14.5625C20.2901 14.5625 20.5 14.7724 20.5 15.0312C20.5 15.2901 20.2901 15.5 20.0312 15.5C19.7724 15.5 19.5625 15.2901 19.5625 15.0312C19.5625 14.7724 19.7724 14.5625 20.0312 14.5625Z" fill="white"/>
</svg>
