<svg width="24" height="24" viewBox="0 0 24 24" fill="none" xmlns="http://www.w3.org/2000/svg">
<g id="upload" clip-path="url(#clip0_543_16165)">
<path id="Vector" d="M12.6812 0.300209C12.5063 0.108948 12.2592 0 12 0C11.7408 0 11.4936 0.108948 11.3187 0.300209L6.39564 5.68482C6.05164 6.06107 6.07778 6.64495 6.45402 6.98895C6.83028 7.33295 7.41415 7.3068 7.75815 6.93056L11.0769 3.30068V16.9231C11.0769 17.4329 11.4902 17.8461 12 17.8461C12.5098 17.8461 12.923 17.4329 12.923 16.9231V3.30068L16.2418 6.93056C16.5858 7.3068 17.1697 7.33295 17.5459 6.98895C17.9222 6.64495 17.9483 6.06107 17.6043 5.68482L12.6812 0.300209Z" fill="#45B6F2"/>
<path id="Vector_2" d="M1.84615 15.6926C1.84615 15.1828 1.43289 14.7695 0.923078 14.7695C0.413281 14.7695 6.44866e-07 15.1828 6.44866e-07 15.6926V15.7602C-2.39705e-05 17.4434 -4.86726e-05 18.8001 0.14341 19.8671C0.292357 20.9749 0.610991 21.9076 1.35182 22.6484C2.09264 23.3893 3.0254 23.708 4.13323 23.8569C5.20027 24.0003 6.55697 24.0003 8.24016 24.0003H15.7599C17.4431 24.0003 18.7998 24.0003 19.8668 23.8569C20.9746 23.708 21.9073 23.3893 22.6482 22.6484C23.389 21.9076 23.7077 20.9749 23.8566 19.8671C24 18.8001 24 17.4434 24 15.7602V15.6926C24 15.1828 23.5867 14.7695 23.0769 14.7695C22.5671 14.7695 22.1538 15.1828 22.1538 15.6926C22.1538 17.4593 22.1519 18.6914 22.027 19.6211C21.9055 20.5242 21.6834 21.0024 21.3428 21.3431C21.0021 21.6837 20.5239 21.9058 19.6208 22.0273C18.6911 22.1522 17.459 22.1541 15.6923 22.1541H8.30769C6.54103 22.1541 5.30889 22.1522 4.37922 22.0273C3.47612 21.9058 2.99787 21.6837 2.65724 21.3431C2.31662 21.0024 2.09452 20.5242 1.97311 19.6211C1.84811 18.6914 1.84615 17.4593 1.84615 15.6926Z" fill="#45B6F2"/>
</g>
<defs>
<clipPath id="clip0_543_16165">
<rect width="24" height="24" fill="white"/>
</clipPath>
</defs>
</svg>
