<svg width="14" height="13" viewBox="0 0 14 13" fill="currentColor" xmlns="http://www.w3.org/2000/svg">
<path d="M14 3.95703V10.733C14 11.1043 13.8525 11.4604 13.5899 11.723C13.3274 11.9855 12.9713 12.133 12.6 12.133H1.4C1.0287 12.133 0.672601 11.9855 0.41005 11.723C0.1475 11.4604 0 11.1043 0 10.733V4.21603L1.4 4.97903L6.664 7.84903C6.7672 7.90473 6.88273 7.93362 7 7.93303C7.12326 7.93175 7.244 7.89795 7.35 7.83503L12.6 4.77603L14 3.95703Z" fill="currentColor"/>
<path d="M14 1.9L12.6 2.726L7 5.995L1.4 2.95L0 2.18V1.9C0 1.5287 0.1475 1.1726 0.41005 0.91005C0.672601 0.6475 1.0287 0.5 1.4 0.5H12.6C12.9713 0.5 13.3274 0.6475 13.5899 0.91005C13.8525 1.1726 14 1.5287 14 1.9Z" fill="currentColor"/>
</svg>
