<svg width="18" height="22" viewBox="0 0 18 22" fill="currentColor" xmlns="http://www.w3.org/2000/svg">
<path fill-rule="evenodd" clip-rule="evenodd" d="M8.99993 0.0410156C6.33363 0.0410156 4.1513 0.41258 2.61362 1.3668C0.992504 2.37279 0.222656 3.93791 0.222656 5.9486V19.7942C0.222656 21.723 2.65333 22.68 4.07082 21.3228L8.74856 16.8443C8.88712 16.7117 9.11274 16.7117 9.2513 16.8443L13.9291 21.3228C15.3466 22.68 17.7772 21.723 17.7772 19.7942V5.9486C17.7772 3.93791 17.0074 2.3728 15.3862 1.3668C13.8486 0.412584 11.6662 0.0410156 8.99993 0.0410156ZM8.99993 1.86457C6.44812 1.86457 4.71688 2.23324 3.64551 2.89808C3.14976 3.20572 2.76997 3.59276 2.51369 4.08907C2.25723 4.58572 2.1229 5.1948 2.1229 5.9486V19.7942C2.1229 20.0907 2.50232 20.2483 2.72848 20.0321L7.40644 15.5534C8.28671 14.7106 9.71315 14.7106 10.5934 15.5534L15.2712 20.0319C15.4974 20.2484 15.877 20.0908 15.877 19.7942V5.9486C15.877 5.1948 15.7426 4.58573 15.4862 4.08907C15.2299 3.59277 14.8501 3.20573 14.3543 2.89808C13.283 2.23324 11.5517 1.86457 8.99993 1.86457Z" fill="#1B2E59"/>
</svg>
