<svg width="16" height="16" viewBox="0 0 16 16" fill="currentColor" xmlns="http://www.w3.org/2000/svg">
<path d="M8.00007 0C6.3336 0.0019773 4.73595 0.664855 3.55758 1.84323C2.37921 3.0216 1.71633 4.61925 1.71436 6.28571C1.71436 11.6641 7.42864 15.7266 7.67195 15.8968C7.76817 15.964 7.8827 16 8.00007 16C8.11744 16 8.23197 15.964 8.3282 15.8968C8.5715 15.7266 14.2858 11.6641 14.2858 6.28571C14.2838 4.61925 13.6209 3.0216 12.4426 1.84323C11.2642 0.664855 9.66654 0.00197711 8.00007 0ZM8.00049 4.00021C8.45256 4.00021 8.89448 4.13426 9.27036 4.38542C9.64625 4.63658 9.93921 4.99356 10.1122 5.41122C10.2852 5.82888 10.3305 6.28846 10.2423 6.73184C10.1541 7.17523 9.93639 7.5825 9.61673 7.90217C9.29707 8.22183 8.88979 8.43952 8.44641 8.52772C8.00302 8.61591 7.54344 8.57065 7.12578 8.39765C6.70812 8.22465 6.35114 7.93168 6.09999 7.5558C5.84883 7.17991 5.71477 6.73799 5.71477 6.28592C5.71477 5.98575 5.77388 5.68853 5.88875 5.41121C6.00361 5.13389 6.17198 4.88191 6.38423 4.66966C6.59648 4.45741 6.84845 4.28904 7.12577 4.17418C7.40309 4.05931 7.70032 4.0002 8.00049 4.00021Z" fill="currentColor"/>
</svg>
