<svg width="26" height="26" viewBox="0 0 26 26" fill="currentColor" xmlns="http://www.w3.org/2000/svg">
<path fill-rule="evenodd" clip-rule="evenodd" d="M12.9999 7.59324C11.4875 7.59324 10.275 8.81322 10.275 10.3181C10.275 11.7708 11.4098 12.9553 12.8477 13.0305C12.9468 13.0225 13.0524 13.0217 13.155 13.0304C14.5867 12.9539 15.7154 11.774 15.7248 10.3158C15.7236 8.81358 14.5025 7.59324 12.9999 7.59324ZM8.65948 10.3181C8.65948 7.92417 10.592 5.97769 12.9999 5.97769C15.3955 5.97769 17.3404 7.92258 17.3404 10.3181C17.3404 10.3196 17.3404 10.3212 17.3404 10.3227C17.3272 12.6581 15.4902 14.5678 13.1567 14.6473C13.1104 14.6489 13.0641 14.6465 13.0182 14.6401C13.0182 14.6401 13.0178 14.6401 13.0175 14.6401C13.0147 14.6399 13.0101 14.6397 13.004 14.6397C12.9907 14.6397 12.9785 14.6406 12.9709 14.6416C12.9285 14.6469 12.8858 14.6488 12.8432 14.6473C10.5137 14.5679 8.65948 12.6612 8.65948 10.3181Z" fill="#1B2E59"/>
<path fill-rule="evenodd" clip-rule="evenodd" d="M8.09609 18.8413C7.26656 19.4 6.80288 20.0394 6.6222 20.647C8.35211 22.0956 10.5699 22.9626 13 22.9626C15.43 22.9626 17.6478 22.0956 19.3777 20.647C19.197 20.0391 18.7329 19.3995 17.9027 18.8406C16.5993 17.9687 14.8269 17.5074 13.008 17.5074C11.19 17.5074 9.41141 17.9684 8.09609 18.8413ZM13.008 15.8919C15.0715 15.8919 17.176 16.4105 18.802 17.4984L18.8037 17.4996C20.0991 18.3712 20.9231 19.5543 21.0624 20.8631C21.0895 21.1182 20.9939 21.371 20.8047 21.5443C18.7446 23.4307 16.0101 24.5781 13 24.5781C9.98978 24.5781 7.25534 23.4307 5.19525 21.5443C5.00605 21.371 4.9104 21.1182 4.93754 20.8631C5.07678 19.5543 5.90086 18.3712 7.19617 17.4996C7.1975 17.4987 7.19884 17.4978 7.20019 17.4969C8.83572 16.4106 10.9443 15.8919 13.008 15.8919Z" fill="#1B2E59"/>
<path fill-rule="evenodd" clip-rule="evenodd" d="M7.14399 17.4123C8.79965 16.3126 10.929 15.7903 13.008 15.7903C15.0868 15.7903 17.2122 16.3125 18.8585 17.414L18.8586 17.4141L18.8603 17.4153L18.8604 17.4154C20.1736 18.299 21.0202 19.5062 21.1634 20.8523C21.1939 21.1395 21.0862 21.4241 20.8733 21.6192C18.7952 23.5221 16.0365 24.6797 13 24.6797C9.96338 24.6797 7.20472 23.5221 5.12666 21.6192C4.91367 21.4241 4.806 21.1395 4.83655 20.8523C4.97976 19.5062 5.82628 18.299 7.13946 17.4154M7.13946 17.4154L7.14399 17.4123ZM13.008 15.9934C10.9597 15.9934 8.87179 16.5085 7.25638 17.5815L7.25287 17.5839C5.97544 18.4435 5.17379 19.6024 5.03853 20.8738C5.01481 21.0969 5.09843 21.3179 5.26384 21.4694C7.30595 23.3394 10.0162 24.4766 13 24.4766C15.9837 24.4766 18.694 23.3394 20.7361 21.4694C20.9015 21.3179 20.9851 21.0969 20.9614 20.8738C20.8261 19.6024 20.0245 18.4435 18.7471 17.5839L18.7455 17.5829C17.1398 16.5084 15.0561 15.9934 13.008 15.9934ZM13.008 17.609C11.2055 17.609 9.44774 18.0663 8.15254 18.9257C7.36779 19.4544 6.92503 20.0506 6.73948 20.6124C8.44411 22.0202 10.6189 22.861 13 22.861C15.381 22.861 17.5558 22.0202 19.2604 20.6124C19.0748 20.0503 18.6317 19.4538 17.8462 18.9249C16.563 18.0667 14.8115 17.609 13.008 17.609ZM8.03993 18.7567C9.37535 17.8704 11.1746 17.4059 13.008 17.4059C14.8422 17.4059 16.6355 17.8708 17.9592 18.7561L17.9594 18.7563C18.8046 19.3253 19.2862 19.9828 19.4751 20.618C19.4866 20.6569 19.474 20.6988 19.4429 20.7249C17.6954 22.1882 15.4547 23.0641 13 23.0641C10.5452 23.0641 8.30451 22.1882 6.55699 20.7249C6.52594 20.6988 6.5133 20.6569 6.52485 20.618C6.71366 19.983 7.19487 19.3259 8.03935 18.7571L8.03993 18.7567Z" fill="#1B2E59"/>
<path fill-rule="evenodd" clip-rule="evenodd" d="M1.42188 12.9999C1.42188 6.60555 6.60555 1.42188 12.9999 1.42188C19.3943 1.42188 24.578 6.60555 24.578 12.9999C24.578 19.3943 19.3943 24.578 12.9999 24.578C6.60555 24.578 1.42188 19.3943 1.42188 12.9999ZM12.9999 3.03742C7.49779 3.03742 3.03742 7.49779 3.03742 12.9999C3.03742 18.5021 7.4978 22.9625 12.9999 22.9625C18.5021 22.9625 22.9625 18.5021 22.9625 12.9999C22.9625 7.4978 18.5021 3.03742 12.9999 3.03742Z" fill="#1B2E59"/>
<path fill-rule="evenodd" clip-rule="evenodd" d="M1.32031 12.9999C1.32031 6.54946 6.54946 1.32031 12.9999 1.32031C19.4504 1.32031 24.6796 6.54946 24.6796 12.9999C24.6796 19.4504 19.4504 24.6796 12.9999 24.6796C6.54946 24.6796 1.32031 19.4504 1.32031 12.9999ZM12.9999 1.52344C6.66164 1.52344 1.52344 6.66164 1.52344 12.9999C1.52344 19.3382 6.66164 24.4765 12.9999 24.4765C19.3382 24.4765 24.4765 19.3382 24.4765 12.9999C24.4765 6.66164 19.3382 1.52344 12.9999 1.52344ZM12.9999 3.13898C7.55388 3.13898 3.13898 7.55388 3.13898 12.9999C3.13898 18.446 7.55389 22.8609 12.9999 22.8609C18.446 22.8609 22.8609 18.446 22.8609 12.9999C22.8609 7.55389 18.446 3.13898 12.9999 3.13898ZM2.93586 12.9999C2.93586 7.4417 7.4417 2.93586 12.9999 2.93586C18.5581 2.93586 23.064 7.4417 23.064 12.9999C23.064 18.5581 18.5581 23.064 12.9999 23.064C7.4417 23.064 2.93586 18.5581 2.93586 12.9999Z" fill="#1B2E59"/>
</svg>
