<svg width="18" height="18" viewBox="0 0 18 18" fill="none" xmlns="http://www.w3.org/2000/svg">
<g clip-path="url(#clip0_757_14973)">
<path fill-rule="evenodd" clip-rule="evenodd" d="M3.2779 4.05714C3.61369 2.86992 4.70523 2 6 2C7.29477 2 8.38632 2.86992 8.7221 4.05714H17.2286C17.6546 4.05714 18 4.40252 18 4.82857C18 5.25462 17.6546 5.6 17.2286 5.6H8.7221C8.38632 6.78723 7.29477 7.65714 6 7.65714C4.70523 7.65714 3.61369 6.78723 3.2779 5.6H0.771429C0.34538 5.6 0 5.25462 0 4.82857C0 4.40252 0.34538 4.05714 0.771429 4.05714H3.2779Z" fill="#1E3362"/>
<path fill-rule="evenodd" clip-rule="evenodd" d="M10.2779 12.0571C10.6137 10.8699 11.7052 10 13 10C14.2948 10 15.3863 10.8699 15.7221 12.0571H17.2286C17.6546 12.0571 18 12.4025 18 12.8286C18 13.2546 17.6546 13.6 17.2286 13.6H15.7221C15.3863 14.7872 14.2948 15.6571 13 15.6571C11.7052 15.6571 10.6137 14.7872 10.2779 13.6H0.771429C0.34538 13.6 0 13.2546 0 12.8286C0 12.4025 0.34538 12.0571 0.771429 12.0571H10.2779Z" fill="#1E3362"/>
</g>
<defs>
<clipPath id="clip0_757_14973">
<rect width="18" height="18" fill="white"/>
</clipPath>
</defs>
</svg>
