<svg width="20" height="20" viewBox="0 0 20 20" fill="none" xmlns="http://www.w3.org/2000/svg">
<path fill-rule="evenodd" clip-rule="evenodd" d="M0.625 5.70552C0.625 5.31587 0.943259 5 1.33585 5H11.226C11.6186 5 11.9368 5.31587 11.9368 5.70552C11.9368 6.09517 11.6186 6.41104 11.226 6.41104H1.33585C0.943259 6.41104 0.625 6.09517 0.625 5.70552ZM0.625 10C0.625 9.61035 0.943259 9.29448 1.33585 9.29448H6.89904C7.29163 9.29448 7.60989 9.61035 7.60989 10C7.60989 10.3896 7.29163 10.7055 6.89904 10.7055H1.33585C0.943259 10.7055 0.625 10.3896 0.625 10ZM0.625 14.2945C0.625 13.9048 0.943259 13.589 1.33585 13.589H11.226C11.6186 13.589 11.9368 13.9048 11.9368 14.2945C11.9368 14.6841 11.6186 15 11.226 15H1.33585C0.943259 15 0.625 14.6841 0.625 14.2945Z" fill="#E6EBF6"/>
<path fill-rule="evenodd" clip-rule="evenodd" d="M17.2918 14.7934C17.0142 15.0689 16.5641 15.0689 16.2865 14.7934L11.9596 10.4989C11.682 10.2234 11.682 9.77664 11.9596 9.50112L16.2865 5.20664C16.5641 4.93112 17.0142 4.93112 17.2918 5.20664C17.5694 5.48217 17.5694 5.92888 17.2918 6.2044L13.4675 10L17.2918 13.7956C17.5694 14.0711 17.5694 14.5178 17.2918 14.7934Z" fill="#E6EBF6"/>
</svg>
