<svg width="16" height="17" viewBox="0 0 16 17" fill="none" xmlns="http://www.w3.org/2000/svg">
    <g clip-path="url(#clip0_702_9556)">
        <path
            d="M11.1623 10.7646L10.7574 11.1908C10.7574 11.1908 9.79508 12.204 7.16841 9.43858C4.54177 6.67319 5.50406 5.66006 5.50406 5.66006L5.75901 5.39165C6.38708 4.73044 6.44628 3.66886 5.89831 2.89387L4.77744 1.30854C4.09924 0.349334 2.78874 0.222622 2.01139 1.04101L0.616196 2.5099C0.230756 2.9157 -0.0275364 3.44173 0.00378799 4.02528C0.0839212 5.51819 0.721849 8.73022 4.28153 12.478C8.05641 16.4522 11.5984 16.6101 13.0468 16.4672C13.5049 16.422 13.9033 16.1749 14.2244 15.8369L15.4872 14.5075C16.3395 13.6101 16.0992 12.0717 15.0086 11.444L13.3104 10.4665C12.5943 10.0543 11.7219 10.1754 11.1623 10.7646Z"
            fill="currentColor" />
    </g>
    <defs>
        <clipPath id="clip0_702_9556">
            <rect width="16" height="16" fill="white" transform="translate(0 0.5)" />
        </clipPath>
    </defs>
</svg>